<?xml version="1.0" encoding="UTF-8" standalone="no"?>
<svg
   xmlns:dc="http://purl.org/dc/elements/1.1/"
   xmlns:cc="http://creativecommons.org/ns#"
   xmlns:rdf="http://www.w3.org/1999/02/22-rdf-syntax-ns#"
   xmlns:svg="http://www.w3.org/2000/svg"
   xmlns="http://www.w3.org/2000/svg"
   viewBox="0 0 149.94133 253.528"
   height="253.528"
   width="149.94133"
   xml:space="preserve"
   id="svg2"
   version="1.1"><metadata
     id="metadata8"><rdf:RDF><cc:Work
         rdf:about=""><dc:format>image/svg+xml</dc:format><dc:type
           rdf:resource="http://purl.org/dc/dcmitype/StillImage" /></cc:Work></rdf:RDF></metadata><defs
     id="defs6"><clipPath
       id="clipPath18"
       clipPathUnits="userSpaceOnUse"><path
         id="path16"
         d="M 0,190.146 H 112.456 V 0 H 0 Z" /></clipPath></defs><g
     transform="matrix(1.3333333,0,0,-1.3333333,0,253.528)"
     id="g10"><g
       id="g12"><g
         clip-path="url(#clipPath18)"
         id="g14"><g
           transform="translate(108.0205,181.2793)"
           id="g20"><path
             id="path22"
             style="fill:#ffffff;fill-opacity:1;fill-rule:nonzero;stroke:none"
             d="m 0,0 c -2.448,0 -4.433,1.984 -4.433,4.434 0,2.449 1.985,4.433 4.433,4.433 2.449,0 4.436,-1.984 4.436,-4.433 C 4.436,1.984 2.449,0 0,0" /></g><g
           transform="translate(108.0205,155.3818)"
           id="g24"><path
             id="path26"
             style="fill:#ffffff;fill-opacity:1;fill-rule:nonzero;stroke:none"
             d="m 0,0 c -2.448,0 -4.433,1.985 -4.433,4.434 0,2.45 1.985,4.434 4.433,4.434 2.449,0 4.436,-1.984 4.436,-4.434 C 4.436,1.985 2.449,0 0,0" /></g><g
           transform="translate(108.0205,129.4844)"
           id="g28"><path
             id="path30"
             style="fill:#ffffff;fill-opacity:1;fill-rule:nonzero;stroke:none"
             d="m 0,0 c -2.448,0 -4.433,1.985 -4.433,4.434 0,2.45 1.985,4.435 4.433,4.435 2.449,0 4.436,-1.985 4.436,-4.435 C 4.436,1.985 2.449,0 0,0" /></g><g
           transform="translate(108.0205,103.5879)"
           id="g32"><path
             id="path34"
             style="fill:#ffffff;fill-opacity:1;fill-rule:nonzero;stroke:none"
             d="m 0,0 c -2.448,0 -4.433,1.985 -4.433,4.434 0,2.449 1.985,4.434 4.433,4.434 2.449,0 4.436,-1.985 4.436,-4.434 C 4.436,1.985 2.449,0 0,0" /></g><g
           transform="translate(108.0205,77.6914)"
           id="g36"><path
             id="path38"
             style="fill:#ffffff;fill-opacity:1;fill-rule:nonzero;stroke:none"
             d="m 0,0 c -2.448,0 -4.433,1.984 -4.433,4.434 0,2.449 1.985,4.433 4.433,4.433 2.449,0 4.436,-1.984 4.436,-4.433 C 4.436,1.984 2.449,0 0,0" /></g><g
           transform="translate(108.0205,51.7939)"
           id="g40"><path
             id="path42"
             style="fill:#ffffff;fill-opacity:1;fill-rule:nonzero;stroke:none"
             d="m 0,0 c -2.448,0 -4.433,1.985 -4.433,4.435 0,2.449 1.985,4.433 4.433,4.433 2.449,0 4.436,-1.984 4.436,-4.433 C 4.436,1.985 2.449,0 0,0" /></g><g
           transform="translate(108.0205,25.8965)"
           id="g44"><path
             id="path46"
             style="fill:#ffffff;fill-opacity:1;fill-rule:nonzero;stroke:none"
             d="m 0,0 c -2.448,0 -4.433,1.985 -4.433,4.436 0,2.449 1.985,4.433 4.433,4.433 2.449,0 4.436,-1.984 4.436,-4.433 C 4.436,1.985 2.449,0 0,0" /></g><g
           transform="translate(108.0205)"
           id="g48"><path
             id="path50"
             style="fill:#ffffff;fill-opacity:1;fill-rule:nonzero;stroke:none"
             d="m 0,0 c -2.448,0 -4.433,1.985 -4.433,4.435 0,2.448 1.985,4.434 4.433,4.434 2.449,0 4.436,-1.986 4.436,-4.434 C 4.436,1.985 2.449,0 0,0" /></g><g
           transform="translate(82.125,181.2793)"
           id="g52"><path
             id="path54"
             style="fill:#ffffff;fill-opacity:1;fill-rule:nonzero;stroke:none"
             d="m 0,0 c -2.449,0 -4.436,1.984 -4.436,4.434 0,2.449 1.987,4.433 4.436,4.433 2.448,0 4.433,-1.984 4.433,-4.433 C 4.433,1.984 2.448,0 0,0" /></g><g
           transform="translate(82.125,155.3818)"
           id="g56"><path
             id="path58"
             style="fill:#ffffff;fill-opacity:1;fill-rule:nonzero;stroke:none"
             d="m 0,0 c -2.449,0 -4.436,1.985 -4.436,4.434 0,2.45 1.987,4.434 4.436,4.434 2.448,0 4.433,-1.984 4.433,-4.434 C 4.433,1.985 2.448,0 0,0" /></g><g
           transform="translate(82.125,129.4844)"
           id="g60"><path
             id="path62"
             style="fill:#ffffff;fill-opacity:1;fill-rule:nonzero;stroke:none"
             d="m 0,0 c -2.449,0 -4.436,1.985 -4.436,4.434 0,2.45 1.987,4.435 4.436,4.435 2.448,0 4.433,-1.985 4.433,-4.435 C 4.433,1.985 2.448,0 0,0" /></g><g
           transform="translate(82.125,103.5879)"
           id="g64"><path
             id="path66"
             style="fill:#ffffff;fill-opacity:1;fill-rule:nonzero;stroke:none"
             d="m 0,0 c -2.449,0 -4.436,1.985 -4.436,4.434 0,2.449 1.987,4.434 4.436,4.434 2.448,0 4.433,-1.985 4.433,-4.434 C 4.433,1.985 2.448,0 0,0" /></g><g
           transform="translate(82.125,77.6914)"
           id="g68"><path
             id="path70"
             style="fill:#ffffff;fill-opacity:1;fill-rule:nonzero;stroke:none"
             d="m 0,0 c -2.449,0 -4.436,1.984 -4.436,4.434 0,2.449 1.987,4.433 4.436,4.433 2.448,0 4.433,-1.984 4.433,-4.433 C 4.433,1.984 2.448,0 0,0" /></g><g
           transform="translate(82.125,51.7939)"
           id="g72"><path
             id="path74"
             style="fill:#ffffff;fill-opacity:1;fill-rule:nonzero;stroke:none"
             d="m 0,0 c -2.449,0 -4.436,1.985 -4.436,4.435 0,2.449 1.987,4.433 4.436,4.433 2.448,0 4.433,-1.984 4.433,-4.433 C 4.433,1.985 2.448,0 0,0" /></g><g
           transform="translate(82.125,25.8965)"
           id="g76"><path
             id="path78"
             style="fill:#ffffff;fill-opacity:1;fill-rule:nonzero;stroke:none"
             d="m 0,0 c -2.449,0 -4.436,1.985 -4.436,4.436 0,2.449 1.987,4.433 4.436,4.433 2.448,0 4.433,-1.984 4.433,-4.433 C 4.433,1.985 2.448,0 0,0" /></g><g
           transform="translate(82.125)"
           id="g80"><path
             id="path82"
             style="fill:#ffffff;fill-opacity:1;fill-rule:nonzero;stroke:none"
             d="m 0,0 c -2.449,0 -4.436,1.985 -4.436,4.435 0,2.448 1.987,4.434 4.436,4.434 2.448,0 4.433,-1.986 4.433,-4.434 C 4.433,1.985 2.448,0 0,0" /></g><g
           transform="translate(56.2295,181.2793)"
           id="g84"><path
             id="path86"
             style="fill:#ffffff;fill-opacity:1;fill-rule:nonzero;stroke:none"
             d="m 0,0 c -2.449,0 -4.437,1.984 -4.437,4.434 0,2.449 1.988,4.433 4.437,4.433 2.446,0 4.434,-1.984 4.434,-4.433 C 4.434,1.984 2.446,0 0,0" /></g><g
           transform="translate(56.2295,155.3818)"
           id="g88"><path
             id="path90"
             style="fill:#ffffff;fill-opacity:1;fill-rule:nonzero;stroke:none"
             d="m 0,0 c -2.449,0 -4.437,1.985 -4.437,4.434 0,2.45 1.988,4.434 4.437,4.434 2.446,0 4.434,-1.984 4.434,-4.434 C 4.434,1.985 2.446,0 0,0" /></g><g
           transform="translate(56.2295,129.4844)"
           id="g92"><path
             id="path94"
             style="fill:#ffffff;fill-opacity:1;fill-rule:nonzero;stroke:none"
             d="m 0,0 c -2.449,0 -4.437,1.985 -4.437,4.434 0,2.45 1.988,4.435 4.437,4.435 2.446,0 4.434,-1.985 4.434,-4.435 C 4.434,1.985 2.446,0 0,0" /></g><g
           transform="translate(56.2295,103.5879)"
           id="g96"><path
             id="path98"
             style="fill:#ffffff;fill-opacity:1;fill-rule:nonzero;stroke:none"
             d="m 0,0 c -2.449,0 -4.437,1.985 -4.437,4.434 0,2.449 1.988,4.434 4.437,4.434 2.446,0 4.434,-1.985 4.434,-4.434 C 4.434,1.985 2.446,0 0,0" /></g><g
           transform="translate(56.2295,77.6914)"
           id="g100"><path
             id="path102"
             style="fill:#ffffff;fill-opacity:1;fill-rule:nonzero;stroke:none"
             d="m 0,0 c -2.449,0 -4.437,1.984 -4.437,4.434 0,2.449 1.988,4.433 4.437,4.433 2.446,0 4.434,-1.984 4.434,-4.433 C 4.434,1.984 2.446,0 0,0" /></g><g
           transform="translate(56.2295,51.7939)"
           id="g104"><path
             id="path106"
             style="fill:#ffffff;fill-opacity:1;fill-rule:nonzero;stroke:none"
             d="m 0,0 c -2.449,0 -4.437,1.985 -4.437,4.435 0,2.449 1.988,4.433 4.437,4.433 2.446,0 4.434,-1.984 4.434,-4.433 C 4.434,1.985 2.446,0 0,0" /></g><g
           transform="translate(56.2295,25.8965)"
           id="g108"><path
             id="path110"
             style="fill:#ffffff;fill-opacity:1;fill-rule:nonzero;stroke:none"
             d="m 0,0 c -2.449,0 -4.437,1.985 -4.437,4.436 0,2.449 1.988,4.433 4.437,4.433 2.446,0 4.434,-1.984 4.434,-4.433 C 4.434,1.985 2.446,0 0,0" /></g><g
           transform="translate(56.2295)"
           id="g112"><path
             id="path114"
             style="fill:#ffffff;fill-opacity:1;fill-rule:nonzero;stroke:none"
             d="m 0,0 c -2.449,0 -4.437,1.985 -4.437,4.435 0,2.448 1.988,4.434 4.437,4.434 2.446,0 4.434,-1.986 4.434,-4.434 C 4.434,1.985 2.446,0 0,0" /></g><g
           transform="translate(30.3301,181.2793)"
           id="g116"><path
             id="path118"
             style="fill:#ffffff;fill-opacity:1;fill-rule:nonzero;stroke:none"
             d="m 0,0 c -2.447,0 -4.435,1.984 -4.435,4.434 0,2.449 1.988,4.433 4.435,4.433 2.45,0 4.437,-1.984 4.437,-4.433 C 4.437,1.984 2.45,0 0,0" /></g><g
           transform="translate(30.3301,155.3818)"
           id="g120"><path
             id="path122"
             style="fill:#ffffff;fill-opacity:1;fill-rule:nonzero;stroke:none"
             d="m 0,0 c -2.447,0 -4.435,1.985 -4.435,4.434 0,2.45 1.988,4.434 4.435,4.434 2.45,0 4.437,-1.984 4.437,-4.434 C 4.437,1.985 2.45,0 0,0" /></g><g
           transform="translate(30.3301,129.4844)"
           id="g124"><path
             id="path126"
             style="fill:#ffffff;fill-opacity:1;fill-rule:nonzero;stroke:none"
             d="m 0,0 c -2.447,0 -4.435,1.985 -4.435,4.434 0,2.45 1.988,4.435 4.435,4.435 2.45,0 4.437,-1.985 4.437,-4.435 C 4.437,1.985 2.45,0 0,0" /></g><g
           transform="translate(30.3301,103.5879)"
           id="g128"><path
             id="path130"
             style="fill:#ffffff;fill-opacity:1;fill-rule:nonzero;stroke:none"
             d="m 0,0 c -2.447,0 -4.435,1.985 -4.435,4.434 0,2.449 1.988,4.434 4.435,4.434 2.45,0 4.437,-1.985 4.437,-4.434 C 4.437,1.985 2.45,0 0,0" /></g><g
           transform="translate(30.3301,77.6914)"
           id="g132"><path
             id="path134"
             style="fill:#ffffff;fill-opacity:1;fill-rule:nonzero;stroke:none"
             d="m 0,0 c -2.447,0 -4.435,1.984 -4.435,4.434 0,2.449 1.988,4.433 4.435,4.433 2.45,0 4.437,-1.984 4.437,-4.433 C 4.437,1.984 2.45,0 0,0" /></g><g
           transform="translate(30.3301,51.7939)"
           id="g136"><path
             id="path138"
             style="fill:#ffffff;fill-opacity:1;fill-rule:nonzero;stroke:none"
             d="m 0,0 c -2.447,0 -4.435,1.985 -4.435,4.435 0,2.449 1.988,4.433 4.435,4.433 2.45,0 4.437,-1.984 4.437,-4.433 C 4.437,1.985 2.45,0 0,0" /></g><g
           transform="translate(30.3301,25.8965)"
           id="g140"><path
             id="path142"
             style="fill:#ffffff;fill-opacity:1;fill-rule:nonzero;stroke:none"
             d="m 0,0 c -2.447,0 -4.435,1.985 -4.435,4.436 0,2.449 1.988,4.433 4.435,4.433 2.45,0 4.437,-1.984 4.437,-4.433 C 4.437,1.985 2.45,0 0,0" /></g><g
           transform="translate(30.3301)"
           id="g144"><path
             id="path146"
             style="fill:#ffffff;fill-opacity:1;fill-rule:nonzero;stroke:none"
             d="m 0,0 c -2.447,0 -4.435,1.985 -4.435,4.435 0,2.448 1.988,4.434 4.435,4.434 2.45,0 4.437,-1.986 4.437,-4.434 C 4.437,1.985 2.45,0 0,0" /></g><g
           transform="translate(4.4326,181.2793)"
           id="g148"><path
             id="path150"
             style="fill:#ffffff;fill-opacity:1;fill-rule:nonzero;stroke:none"
             d="m 0,0 c -2.449,0 -4.433,1.984 -4.433,4.434 0,2.449 1.984,4.433 4.433,4.433 2.45,0 4.437,-1.984 4.437,-4.433 C 4.437,1.984 2.45,0 0,0" /></g><g
           transform="translate(4.4326,155.3818)"
           id="g152"><path
             id="path154"
             style="fill:#ffffff;fill-opacity:1;fill-rule:nonzero;stroke:none"
             d="m 0,0 c -2.449,0 -4.433,1.985 -4.433,4.434 0,2.45 1.984,4.434 4.433,4.434 2.45,0 4.437,-1.984 4.437,-4.434 C 4.437,1.985 2.45,0 0,0" /></g><g
           transform="translate(4.4326,129.4844)"
           id="g156"><path
             id="path158"
             style="fill:#ffffff;fill-opacity:1;fill-rule:nonzero;stroke:none"
             d="m 0,0 c -2.449,0 -4.433,1.985 -4.433,4.434 0,2.45 1.984,4.435 4.433,4.435 2.45,0 4.437,-1.985 4.437,-4.435 C 4.437,1.985 2.45,0 0,0" /></g><g
           transform="translate(4.4326,103.5879)"
           id="g160"><path
             id="path162"
             style="fill:#ffffff;fill-opacity:1;fill-rule:nonzero;stroke:none"
             d="m 0,0 c -2.449,0 -4.433,1.985 -4.433,4.434 0,2.449 1.984,4.434 4.433,4.434 2.45,0 4.437,-1.985 4.437,-4.434 C 4.437,1.985 2.45,0 0,0" /></g><g
           transform="translate(4.4326,77.6914)"
           id="g164"><path
             id="path166"
             style="fill:#ffffff;fill-opacity:1;fill-rule:nonzero;stroke:none"
             d="m 0,0 c -2.449,0 -4.433,1.984 -4.433,4.434 0,2.449 1.984,4.433 4.433,4.433 2.45,0 4.437,-1.984 4.437,-4.433 C 4.437,1.984 2.45,0 0,0" /></g><g
           transform="translate(4.4326,51.7939)"
           id="g168"><path
             id="path170"
             style="fill:#ffffff;fill-opacity:1;fill-rule:nonzero;stroke:none"
             d="m 0,0 c -2.449,0 -4.433,1.985 -4.433,4.435 0,2.449 1.984,4.433 4.433,4.433 2.45,0 4.437,-1.984 4.437,-4.433 C 4.437,1.985 2.45,0 0,0" /></g><g
           transform="translate(4.4326,25.8965)"
           id="g172"><path
             id="path174"
             style="fill:#ffffff;fill-opacity:1;fill-rule:nonzero;stroke:none"
             d="m 0,0 c -2.449,0 -4.433,1.985 -4.433,4.436 0,2.449 1.984,4.433 4.433,4.433 2.45,0 4.437,-1.984 4.437,-4.433 C 4.437,1.985 2.45,0 0,0" /></g><g
           transform="translate(4.4326)"
           id="g176"><path
             id="path178"
             style="fill:#ffffff;fill-opacity:1;fill-rule:nonzero;stroke:none"
             d="m 0,0 c -2.449,0 -4.433,1.985 -4.433,4.435 0,2.448 1.984,4.434 4.433,4.434 2.45,0 4.437,-1.986 4.437,-4.434 C 4.437,1.985 2.45,0 0,0" /></g></g></g></g></svg>