<?xml version="1.0" encoding="UTF-8" standalone="no"?>
<svg
   xmlns:dc="http://purl.org/dc/elements/1.1/"
   xmlns:cc="http://creativecommons.org/ns#"
   xmlns:rdf="http://www.w3.org/1999/02/22-rdf-syntax-ns#"
   xmlns:svg="http://www.w3.org/2000/svg"
   xmlns="http://www.w3.org/2000/svg"
   viewBox="0 0 174.96268 82.046936"
   height="82.046936"
   width="174.96268"
   xml:space="preserve"
   id="svg2"
   version="1.1"><metadata
     id="metadata8"><rdf:RDF><cc:Work
         rdf:about=""><dc:format>image/svg+xml</dc:format><dc:type
           rdf:resource="http://purl.org/dc/dcmitype/StillImage" /></cc:Work></rdf:RDF></metadata><defs
     id="defs6"><clipPath
       id="clipPath18"
       clipPathUnits="userSpaceOnUse"><path
         id="path16"
         d="M 0,61.535 H 131.222 V 0 H 0 Z" /></clipPath><clipPath
       id="clipPath42"
       clipPathUnits="userSpaceOnUse"><path
         id="path40"
         d="M 0,61.535 H 131.222 V 0 H 0 Z" /></clipPath></defs><g
     transform="matrix(1.3333333,0,0,-1.3333333,0,82.046933)"
     id="g10"><g
       id="g12"><g
         clip-path="url(#clipPath18)"
         id="g14"><text
           id="text22"
           style="font-variant:normal;font-weight:800;font-stretch:normal;font-size:24.74360085px;font-family:'Graviola Soft Heavy';-inkscape-font-specification:GraviolaSoft-Heavy;writing-mode:lr-tb;fill:#373535;fill-opacity:1;fill-rule:nonzero;stroke:none"
           transform="matrix(1,0,0,-1,0,40.2559)"><tspan
             id="tspan20"
             y="0"
             x="0 24.050779 41.346554 59.161949 75.985123">MANDA</tspan></text>
<text
           id="text26"
           style="font-variant:normal;font-weight:bold;font-stretch:normal;font-size:33.60559845px;font-family:'Graviola Soft';-inkscape-font-specification:GraviolaSoft-Bold;writing-mode:lr-tb;fill:#373535;fill-opacity:1;fill-rule:nonzero;stroke:none"
           transform="matrix(1,0,0,-1,0.5947,13.2979)"><tspan
             id="tspan24"
             y="0"
             x="0 20.734655">TR</tspan></text>
<text
           id="text30"
           style="font-variant:normal;font-weight:500;font-stretch:normal;font-size:47px;font-family:'Graviola Soft Medium';-inkscape-font-specification:GraviolaSoft-Medium;writing-mode:lr-tb;fill:#373535;fill-opacity:1;fill-rule:nonzero;stroke:none"
           transform="matrix(1,0,0,-1,43.3408,13.2979)"><tspan
             id="tspan28"
             y="0"
             x="0">e</tspan></text>
</g></g><text
       id="text34"
       style="font-variant:normal;font-weight:bold;font-stretch:normal;font-size:33.60559845px;font-family:'Graviola Soft';-inkscape-font-specification:GraviolaSoft-Bold;writing-mode:lr-tb;fill:#373535;fill-opacity:1;fill-rule:nonzero;stroke:none"
       transform="matrix(1,0,0,-1,68.2031,13.2979)"><tspan
         id="tspan32"
         y="0"
         x="0">N</tspan></text>
<g
       id="g36"><g
         clip-path="url(#clipPath42)"
         id="g38"><text
           id="text46"
           style="font-variant:normal;font-weight:bold;font-stretch:normal;font-size:33.60559845px;font-family:'Graviola Soft';-inkscape-font-specification:GraviolaSoft-Bold;writing-mode:lr-tb;fill:#373535;fill-opacity:1;fill-rule:nonzero;stroke:none"
           transform="matrix(1,0,0,-1,110.958,13.2979)"><tspan
             id="tspan44"
             y="0"
             x="0">S</tspan></text>
<g
           transform="translate(100.8057,56.4219)"
           id="g48"><path
             id="path50"
             style="fill:#373535;fill-opacity:1;fill-rule:nonzero;stroke:none"
             d="M 0,0 C 1.992,-1.891 3.613,-3.984 4.795,-6.179 5.1,-6.753 5.167,-7.023 5.066,-7.767 4.964,-8.543 4.795,-8.813 4.153,-9.59 c -1.823,-2.094 -4.22,-4.288 -7.056,-6.247 -0.778,-0.54 -1.047,-0.405 -1.656,0.338 -0.574,0.743 -0.607,1.081 0.035,1.722 2.059,1.924 3.782,4.018 4.929,6.146 -0.574,1.925 -1.519,3.95 -2.735,5.909 -0.506,0.98 -0.473,1.249 0.338,1.891 C -1.182,0.777 -0.844,0.811 0,0" /></g><g
           transform="translate(109.9634,56.4219)"
           id="g52"><path
             id="path54"
             style="fill:#373535;fill-opacity:1;fill-rule:nonzero;stroke:none"
             d="M 0,0 C 1.992,-1.891 3.613,-3.984 4.795,-6.179 5.1,-6.753 5.167,-7.023 5.066,-7.767 4.964,-8.543 4.795,-8.813 4.153,-9.59 c -1.823,-2.094 -4.22,-4.288 -7.056,-6.247 -0.778,-0.54 -1.047,-0.405 -1.656,0.338 -0.574,0.743 -0.607,1.081 0.035,1.722 2.059,1.924 3.782,4.018 4.929,6.146 -0.574,1.925 -1.519,3.95 -2.735,5.909 -0.506,0.98 -0.473,1.249 0.338,1.891 C -1.182,0.777 -0.844,0.811 0,0" /></g><g
           transform="translate(94.2446,16.5361)"
           id="g56"><path
             id="path58"
             style="fill:#373535;fill-opacity:1;fill-rule:nonzero;stroke:none"
             d="m 0,0 c 0,0.314 0.255,0.57 0.57,0.57 h 3.5 c 4.288,0 6.416,2.026 6.416,8.138 0,6.112 -2.128,8.138 -6.416,8.138 H 0.568 C 0.254,16.846 0,17.1 0,17.414 v 2.234 c 0,0.671 0.544,1.216 1.216,1.216 h 2.888 c 7.361,0 11.414,-3.308 11.414,-12.156 0,-8.847 -4.053,-12.156 -11.414,-12.156 H 1.215 C 0.544,-3.448 0,-2.904 0,-2.233 Z" /></g></g></g></g></svg>