<?xml version="1.0" encoding="UTF-8" standalone="no"?>
<svg
   xmlns:dc="http://purl.org/dc/elements/1.1/"
   xmlns:cc="http://creativecommons.org/ns#"
   xmlns:rdf="http://www.w3.org/1999/02/22-rdf-syntax-ns#"
   xmlns:svg="http://www.w3.org/2000/svg"
   xmlns="http://www.w3.org/2000/svg"
   viewBox="0 0 209.74268 242.33467"
   height="242.33467"
   width="209.74268"
   xml:space="preserve"
   id="svg2"
   version="1.1"><metadata
     id="metadata8"><rdf:RDF><cc:Work
         rdf:about=""><dc:format>image/svg+xml</dc:format><dc:type
           rdf:resource="http://purl.org/dc/dcmitype/StillImage" /></cc:Work></rdf:RDF></metadata><defs
     id="defs6"><clipPath
       id="clipPath18"
       clipPathUnits="userSpaceOnUse"><path
         id="path16"
         d="M 0,181.751 H 157.307 V 0 H 0 Z" /></clipPath><clipPath
       id="clipPath26"
       clipPathUnits="userSpaceOnUse"><path
         id="path24"
         d="M 6.73926,73.5591 H 124.188 V 14.1396 H 6.73926 Z" /></clipPath><linearGradient
       id="linearGradient112"
       spreadMethod="pad"
       gradientTransform="matrix(5.4033451,12.413097,12.413097,-5.4033451,120.33398,159.55176)"
       gradientUnits="userSpaceOnUse"
       y2="0"
       x2="1"
       y1="0"
       x1="0"><stop
         id="stop104"
         offset="0"
         style="stop-opacity:1;stop-color:#ff9f5a" /><stop
         id="stop106"
         offset="0.346919"
         style="stop-opacity:1;stop-color:#ff9f5a" /><stop
         id="stop108"
         offset="0.67692456"
         style="stop-opacity:1;stop-color:#ffc35a" /><stop
         id="stop110"
         offset="1"
         style="stop-opacity:1;stop-color:#ffc35a" /></linearGradient><clipPath
       id="clipPath122"
       clipPathUnits="userSpaceOnUse"><path
         id="path120"
         d="M 0,181.751 H 157.307 V 0 H 0 Z" /></clipPath></defs><g
     transform="matrix(1.3333333,0,0,-1.3333333,0,242.33467)"
     id="g10"><g
       id="g12"><g
         clip-path="url(#clipPath18)"
         id="g14"><g
           id="g20"><g
             id="g22" /><g
             id="g34"><g
               style="opacity:0.80000299"
               id="g32"
               clip-path="url(#clipPath26)"><g
                 id="g30"
                 transform="translate(64.7549,73.5415)"><path
                   id="path28"
                   style="fill:none;fill-opacity:1;fill-rule:evenodd;stroke:none"
                   d="m 0,0 c 12.325,0 24.646,0.006 36.971,-0.001 9.566,-0.004 16.831,-3.996 20.658,-12.902 3.391,-7.882 1.945,-15.43 -3.858,-21.655 -6.556,-7.024 -14.747,-8.752 -23.729,-5.304 -2.441,0.938 -3.176,0.328 -4.205,-1.8 -5.816,-12.053 -15.652,-18.173 -28.909,-17.716 -13.057,0.452 -22.407,7.083 -27.443,19.284 -0.834,2.008 -1.586,2.445 -3.816,2.08 -12.358,-2.015 -22.801,5.904 -23.637,17.663 -0.795,11.214 8.318,20.281 20.554,20.338 C -24.941,0.047 -12.471,0 0,0" /></g></g></g></g><g
           transform="translate(20.9268,150.4844)"
           id="g36"><path
             id="path38"
             style="fill:none;stroke:#ece1d5;stroke-width:1;stroke-linecap:butt;stroke-linejoin:miter;stroke-miterlimit:10;stroke-dasharray:none;stroke-opacity:1"
             d="m 0,0 c -4.234,0 -8.471,-0.001 -12.705,0.001 -3.288,0.002 -5.787,1.373 -7.103,4.434 -1.164,2.709 -0.668,5.303 1.329,7.442 2.252,2.416 5.067,3.009 8.155,1.824 0.838,-0.322 1.09,-0.112 1.444,0.619 1.999,4.142 5.379,6.246 9.937,6.088 4.488,-0.155 7.702,-2.433 9.432,-6.628 0.286,-0.689 0.544,-0.84 1.31,-0.714 4.249,0.692 7.839,-2.028 8.124,-6.07 C 20.198,3.141 17.066,0.025 12.859,0.005 8.573,-0.016 4.286,0 0,0 Z" /></g><g
           transform="translate(129.5518,4.3828)"
           id="g40"><path
             id="path42"
             style="fill:#f6ae90;fill-opacity:1;fill-rule:nonzero;stroke:none"
             d="m 0,0 c -1.15,1.814 -1.128,4.137 -0.062,6.004 6.666,11.694 35.266,64.358 19.105,80.094 -12.737,12.4 -65.266,8.034 -65.266,8.034 0,0 -0.624,-1.015 -1.479,-2.682 -1.659,-0.672 -2.767,-1.615 -3.265,-3.827 -0.654,-2.921 -3.937,-11.863 2.18,-17.692 9.877,-9.416 46.599,1.104 49.309,-4.472 2.994,-6.161 -14.03,-61.553 -14.03,-61.553 l 0.462,-0.008 c 0.996,-1.166 5.029,-2.597 6.765,-3.601 1.41,-0.815 3.012,-1.236 4.641,-1.236 H 0.866 C 0.548,-0.744 0.258,-0.408 0,0" /></g><g
           transform="translate(116.0439,8.2891)"
           id="g44"><path
             id="path46"
             style="fill:#33213d;fill-opacity:1;fill-rule:nonzero;stroke:none"
             d="m 0,0 h 0.604 c 0.962,0 1.889,-0.342 2.634,-0.953 1.131,-0.934 2.708,-1.916 3.994,-2.66 1.409,-0.813 3.009,-1.233 4.636,-1.233 h 2.506 c 0.085,-0.052 0.167,-0.099 0.241,-0.131 1.43,-0.584 3.119,-0.845 3.834,-3.312 h -7.148 c -1.382,0 -2.721,0.49 -3.774,1.387 L 4.568,-4.383 C 4.257,-4.117 3.797,-4.059 3.407,-4.285 3.096,-4.465 2.922,-4.814 2.922,-5.174 V -8.289 H 1.234 c 0,0 -2.532,6.445 -1.234,8.289" /></g><g
           transform="translate(101.2627,4.3828)"
           id="g48"><path
             id="path50"
             style="fill:#f6ae90;fill-opacity:1;fill-rule:nonzero;stroke:none"
             d="m 0,0 c -1.15,1.814 -1.131,4.135 -0.076,6.004 6.611,11.697 34.957,64.358 18.793,80.094 -6.735,6.559 -18.704,8.426 -28.488,8.731 0.069,-1.573 -0.036,-3.156 -0.334,-4.695 -0.264,-1.381 -0.511,-2.763 -0.737,-4.152 -0.034,-0.342 -0.217,-1.723 -0.279,-2.315 -0.265,-2.566 -0.462,-5.14 -0.613,-7.716 -0.195,-3.301 -0.31,-6.605 -0.399,-9.909 6.642,0.324 12.665,2.799 14.31,-0.583 C 5.17,59.298 -13.508,3.906 -13.508,3.906 l 0.461,-0.008 c 0.996,-1.166 5.029,-2.597 6.765,-3.601 1.41,-0.815 3.013,-1.236 4.642,-1.236 H 0.866 C 0.548,-0.744 0.258,-0.408 0,0" /></g><g
           transform="translate(87.7549,8.2891)"
           id="g52"><path
             id="path54"
             style="fill:#33213d;fill-opacity:1;fill-rule:nonzero;stroke:none"
             d="m 0,0 h 0.602 c 0.963,0 1.891,-0.342 2.636,-0.953 1.13,-0.934 2.707,-1.916 3.994,-2.66 1.409,-0.813 3.009,-1.233 4.636,-1.233 h 2.506 c 0.084,-0.052 0.167,-0.099 0.24,-0.131 1.43,-0.584 3.119,-0.845 3.834,-3.312 H 11.3 c -1.382,0 -2.721,0.49 -3.774,1.387 L 4.568,-4.383 C 4.256,-4.117 3.797,-4.059 3.407,-4.285 3.095,-4.465 2.922,-4.814 2.922,-5.174 V -8.289 H 1.234 c 0,0 -2.532,6.445 -1.234,8.289" /></g><g
           transform="translate(109.5781,49.4956)"
           id="g56"><path
             id="path58"
             style="fill:#e59383;fill-opacity:1;fill-rule:nonzero;stroke:none"
             d="M 0,0 -8.008,5.166 C -8.404,3.499 -8.842,1.754 -9.314,-0.042 -5.385,-0.147 0,0 0,0" /></g><g
           transform="translate(137.8115,46.8081)"
           id="g60"><path
             id="path62"
             style="fill:#e59383;fill-opacity:1;fill-rule:nonzero;stroke:none"
             d="M 0,0 -10.209,3.621 C -10.488,2.406 -10.783,1.165 -11.091,-0.093 -7.447,-0.269 0,0 0,0" /></g><g
           transform="translate(148.5947,90.4805)"
           id="g64"><path
             id="path66"
             style="fill:#F25C00;fill-opacity:1;fill-rule:nonzero;stroke:none"
             d="m 0,0 c -9.085,8.844 -38.41,9.16 -54.482,8.613 -9.893,0.59 -17.36,0.068 -17.36,0.068 0,0 -10.751,-16.234 -1.04,-25.923 4.293,-4.282 23.173,-3.869 27.783,-3.532 0.847,-2.14 -0.407,-9.037 -2.517,-17.476 3.32,-1.562 9.808,-3.817 18.122,-3.378 2.811,7.732 4.954,15.592 5.619,22.582 2.848,-0.035 4.804,-0.46 5.354,-1.593 1.094,-2.251 -0.526,-11.014 -2.911,-21.294 3.34,-1.043 10.777,-2.968 20.069,-0.649 C 4.828,-25.794 8.218,-8.003 0,0" /></g><g
           transform="translate(124.9355,75.5093)"
           id="g68"><path
             id="path70"
             style="fill:#bc3760;fill-opacity:1;fill-rule:nonzero;stroke:none"
             d="m 0,0 c -0.013,0 -0.025,0 -0.039,0.001 -0.26,0.021 -0.457,0.249 -0.438,0.512 1.056,13.879 -11.402,18.513 -11.527,18.558 -0.247,0.089 -0.377,0.362 -0.288,0.609 0.089,0.247 0.361,0.375 0.608,0.286 C -11.55,19.919 1.582,15.035 0.473,0.44 0.455,0.19 0.247,0 0,0" /></g><g
           transform="translate(155.5303,59.4761)"
           id="g72"><path
             id="path74"
             style="fill:#e5517f;fill-opacity:1;fill-rule:nonzero;stroke:none"
             d="m 0,0 c -0.013,0 -0.026,0.001 -0.037,0.004 -0.098,0.02 -0.158,0.116 -0.136,0.212 0.032,0.152 3.244,15.269 0.459,25.768 -1.972,7.428 -10.003,10.261 -10.084,10.287 -0.093,0.033 -0.142,0.135 -0.11,0.228 0.03,0.092 0.133,0.143 0.225,0.11 C -9.601,36.581 -1.391,33.691 0.63,26.077 3.438,15.493 0.208,0.293 0.173,0.141 0.156,0.057 0.082,0 0,0" /></g><g
           transform="translate(134.4932,14.3833)"
           id="g76"><path
             id="path78"
             style="fill:#f6ae90;fill-opacity:1;fill-rule:nonzero;stroke:none"
             d="m 0,0 c -0.033,0 -0.065,0.009 -0.096,0.027 -0.082,0.051 -0.108,0.161 -0.056,0.245 7.468,12.189 12.936,27.132 12.993,27.281 0.034,0.093 0.138,0.141 0.229,0.108 0.091,-0.034 0.139,-0.137 0.104,-0.229 C 13.122,27.283 7.64,12.305 0.151,0.086 0.116,0.03 0.061,0 0,0" /></g><g
           transform="translate(79.0225,170.5405)"
           id="g80"><path
             id="path82"
             style="fill:#f4834a;fill-opacity:1;fill-rule:nonzero;stroke:none"
             d="m 0,0 c 0,0 -1.226,1.729 -4.85,2.231 -3.624,0.501 -7.163,-4.406 -6.478,-7.752 0.68,-3.345 3.357,-7.694 2.239,-9.479 -1.113,-1.784 -4.46,-0.673 -6.355,-3.71 -1.896,-3.037 0.558,-9.728 8.03,-10.508 7.471,-0.781 10.256,11.906 8.948,16.407 C 0.226,-8.308 0,0 0,0" /></g><g
           transform="translate(108.7725,168.0908)"
           id="g84"><path
             id="path86"
             style="fill:#ffff;fill-opacity:1;fill-rule:nonzero;stroke:none"
             d="M 0,0 0.552,0.182 C 1.35,0.444 2.049,0.941 2.561,1.607 l 7.832,8.789 3.797,-12.898 -0.01,-12.865 -9.592,5.125 c -0.702,0.458 -1.529,0.694 -2.37,0.676 L 0.907,-9.593 C -0.736,-5.92 -0.39,-2.081 0,0" /></g><g
           transform="translate(100.9746,164.7808)"
           id="g88"><path
             id="path90"
             style="fill:#FF9A3A;fill-opacity:1;fill-rule:nonzero;stroke:none"
             d="M 0,0 V 0 C 0.208,0.537 0.643,0.952 1.188,1.132 L 7.798,3.31 C 7.408,1.23 7.062,-2.61 8.705,-6.283 8.079,-6.295 7.603,-6.85 7.687,-7.471 l 0.696,-5.14 -1.205,-0.206 c -1.82,-0.311 -3.546,0.912 -3.856,2.731 L 3.002,-8.21 C 2.842,-7.274 2.268,-6.429 1.405,-6.027 1.228,-5.945 1.074,-5.849 0.98,-5.739 0.52,-5.202 -0.256,-0.658 0,0" /></g></g></g><g
       id="g92"><g
         id="g94"><g
           id="g100"><g
             id="g102"><path
               id="path114"
               style="fill:url(#linearGradient112);stroke:none"
               d="m 120.595,179.43 c -2.76,-0.472 -3.934,-7.05 -2.628,-14.696 v 0 c 1.308,-7.644 4.603,-13.458 7.363,-12.986 v 0 c 2.76,0.471 3.933,7.052 2.625,14.695 v 0 c -1.256,7.354 -4.352,13.015 -7.043,13.014 v 0 c -0.107,0 -0.213,-0.009 -0.317,-0.027" /></g></g></g></g><g
       id="g116"><g
         clip-path="url(#clipPath122)"
         id="g118"><g
           transform="translate(120.6191,155.6724)"
           id="g124"><path
             id="path126"
             style="fill:#FB7200;fill-opacity:1;fill-rule:nonzero;stroke:none"
             d="m 0,0 c -0.165,0 -0.323,0.091 -0.401,0.248 -1.178,2.383 -2.131,5.487 -2.691,8.739 -0.532,3.123 -0.676,6.144 -0.411,8.738 0.026,0.245 0.242,0.42 0.489,0.398 0.243,-0.025 0.423,-0.244 0.399,-0.489 C -2.873,15.121 -2.731,12.182 -2.212,9.138 -1.67,5.968 -0.743,2.95 0.398,0.643 0.509,0.423 0.418,0.156 0.197,0.046 0.132,0.015 0.066,0 0,0" /></g><g
           transform="translate(131.8223,167.105)"
           id="g128"><path
             id="path130"
             style="fill:#ef6a67;fill-opacity:1;fill-rule:nonzero;stroke:none"
             d="m 0,0 v 0 c 0.188,-1.094 -0.448,-2.161 -1.499,-2.517 l -5.324,-1.806 c -1.835,-0.623 -3.791,0.541 -4.118,2.451 -0.326,1.91 1.13,3.659 3.069,3.682 l 5.621,0.066 C -1.142,1.889 -0.187,1.093 0,0" /></g><g
           transform="translate(102.4316,162.4131)"
           id="g132"><path
             id="path134"
             style="fill:#fff;fill-opacity:1;fill-rule:nonzero;stroke:none"
             d="m 0,0 c -0.196,0 -0.374,0.13 -0.431,0.328 -0.062,0.238 0.078,0.484 0.317,0.547 L 2.877,1.687 C 3.117,1.752 3.36,1.611 3.423,1.374 3.488,1.136 3.347,0.892 3.108,0.828 L 0.117,0.015 C 0.078,0.004 0.039,0 0,0" /></g><g
           transform="translate(102.6943,160.8765)"
           id="g136"><path
             id="path138"
             style="fill:#ffff;fill-opacity:1;fill-rule:nonzero;stroke:none"
             d="m 0,0 c -0.195,0 -0.377,0.131 -0.429,0.329 -0.065,0.237 0.075,0.482 0.312,0.546 L 2.876,1.687 C 3.114,1.753 3.359,1.611 3.422,1.375 3.487,1.136 3.349,0.893 3.11,0.827 L 0.117,0.015 C 0.078,0.005 0.039,0 0,0" /></g><g
           transform="translate(128.7285,175.9277)"
           id="g140"><path
             id="path142"
             style="fill:#ffff;fill-opacity:1;fill-rule:nonzero;stroke:none"
             d="M 0,0 C -0.151,0 -0.297,0.077 -0.383,0.215 -0.509,0.426 -0.443,0.7 -0.231,0.828 L 7.9,5.759 C 8.11,5.886 8.383,5.818 8.511,5.608 8.641,5.398 8.571,5.124 8.361,4.996 L 0.229,0.065 C 0.158,0.021 0.078,0 0,0" /></g><g
           transform="translate(133.5352,169.1445)"
           id="g144"><path
             id="path146"
             style="fill:#ffff;fill-opacity:1;fill-rule:nonzero;stroke:none"
             d="m 0,0 c -0.214,0 -0.402,0.154 -0.439,0.371 -0.041,0.242 0.121,0.473 0.364,0.514 L 10.142,2.633 C 10.38,2.675 10.616,2.512 10.657,2.269 10.699,2.026 10.536,1.796 10.294,1.754 L 0.074,0.006 C 0.048,0.002 0.024,0 0,0" /></g><g
           transform="translate(141.3252,159.6665)"
           id="g148"><path
             id="path150"
             style="fill:#ffff;fill-opacity:1;fill-rule:nonzero;stroke:none"
             d="m 0,0 h -0.005 l -8.719,0.132 c -0.244,0.004 -0.441,0.206 -0.439,0.453 0.004,0.246 0.229,0.436 0.455,0.438 L 0.008,0.892 C 0.255,0.887 0.45,0.685 0.446,0.439 0.443,0.195 0.244,0 0,0" /></g><g
           transform="translate(127.459,121.5127)"
           id="g152"><path
             id="path154"
             style="fill:#ffff;fill-opacity:1;fill-rule:nonzero;stroke:none"
             d="m 0,0 c -1.756,11.16 -2.014,16.668 -5.181,22.714 -2.384,4.552 -11.713,4.579 -11.713,4.579 l -4.234,-1.307 c 0,0 -0.4,-1.468 0.256,-3.963 0.751,-2.865 1.709,-5.922 2.705,-8.866 -2.114,5.267 -4.648,10.103 -5.779,11.261 -4.423,4.528 -9.906,4.951 -9.906,4.951 0,0 0,-43.606 18.306,-47.632 C -4.706,-20.646 2.351,-14.928 0,0" /></g><g
           transform="translate(106.6924,99.1841)"
           id="g156"><path
             id="path158"
             style="fill:#ffff;fill-opacity:1;fill-rule:nonzero;stroke:none"
             d="m 0,0 c -0.082,0.371 -3.477,14.381 -3.18,19.011 0.679,10.643 4.654,18.597 1.058,24.642 -5.55,9.326 -17.187,9.453 -22.714,8.928 C -30.261,52.064 -45.978,47.066 -46.342,34.91 -46.354,34.536 -28.309,24.025 -29.888,1.872 -29.934,1.255 -30.135,0.639 -30.455,-0.001 -26.457,-3.174 -9.253,-4.359 0,0" /></g><g
           transform="translate(90.1172,165.6387)"
           id="g160"><path
             id="path162"
             style="fill:#f4834a;fill-opacity:1;fill-rule:nonzero;stroke:none"
             d="m 0,0 c 0,0 2.037,2.346 1.187,6.296 -0.848,3.959 -7.486,4.126 -8.982,2.286 -1.274,-1.566 -1.068,-2.956 -2.797,-2.788 -1.728,0.167 -4.906,-2.063 -4.796,-4.181 0.113,-2.12 1.451,-3.898 0.672,-4.933 -0.782,-1.034 -1.395,-3.756 0.5,-5.322 1.896,-1.567 6.071,-0.793 7.412,-0.26 C -5.463,-8.369 0,0 0,0" /></g><g
           transform="translate(86.2471,155.9019)"
           id="g164"><path
             id="path166"
             style="fill:#f6ae90;fill-opacity:1;fill-rule:nonzero;stroke:none"
             d="m 0,0 1.405,-3.331 c 0.573,-1.357 -0.268,-2.896 -1.719,-3.146 -1.276,-0.219 -2.481,0.66 -2.659,1.942 l -0.85,6.133 z" /></g><g
           transform="translate(86.5137,155.042)"
           id="g168"><path
             id="path170"
             style="fill:#e59383;fill-opacity:1;fill-rule:nonzero;stroke:none"
             d="m 0,0 0.104,-0.014 0.851,-2.021 c -0.581,-0.009 -1.346,0.053 -1.926,0.37 -1.079,0.586 -2.038,2.42 -2.038,2.42 z" /></g><g
           transform="translate(80.626,161.1431)"
           id="g172"><path
             id="path174"
             style="fill:#f6ae90;fill-opacity:1;fill-rule:nonzero;stroke:none"
             d="M 0,0 C 0.264,0.073 0.53,0.078 0.781,0.025 L 0.264,1.886 C 0.13,3.461 1.238,5.108 4.51,6.016 6.69,6.621 7.889,5.587 8.822,3.34 10.021,0.465 10.752,-2.943 9.912,-4.235 9.284,-5.199 7.976,-5.629 5.888,-6.101 4.09,-6.507 2.291,-5.42 1.798,-3.644 0.914,-3.89 0.091,-3.827 -0.391,-3.042 -0.958,-2.111 -0.889,-0.245 0,0" /></g><g
           transform="translate(59.0254,71.8833)"
           id="g176"><path
             id="path178"
             style="fill:#f49f4aa;fill-opacity:1;fill-rule:nonzero;stroke:none"
             d="m 0,0 c 0.006,-3.034 -1.746,0.606 -3.654,-0.367 -1.911,-0.973 0.877,-5.234 5.356,-4.43 4.485,0.805 4.531,6.51 1.906,9.38 C 2.586,5.7 -0.613,8.71 -4.168,12.209 -5.354,8.424 -7.166,5.853 -8.582,4.288 -3.631,2.241 0,0.894 0,0" /></g><g
           transform="translate(70.7568,148.1719)"
           id="g180"><path
             id="path182"
             style="fill:#fff;fill-opacity:1;fill-rule:nonzero;stroke:none"
             d="m 0,0 c 0,0 -42.003,-24.544 -46.955,-41.889 -4.652,-16.296 9.229,-32.965 26.642,-30.111 1.416,1.564 3.227,4.136 4.414,7.921 0.658,8.485 -12.011,12.183 -12.304,14.714 -0.777,6.734 18.901,23.573 26.05,26.982 C 1.334,-20.72 0,0 0,0" /></g><g
           transform="translate(59.0254,71.8833)"
           id="g184"><path
             id="path186"
             style="fill:#f6ae90;fill-opacity:1;fill-rule:nonzero;stroke:none"
             d="m 0,0 c 0.006,-3.034 -1.746,0.606 -3.654,-0.367 -1.911,-0.973 0.877,-5.234 5.356,-4.43 4.485,0.805 4.531,6.51 1.906,9.38 C 2.586,5.7 -0.613,8.71 -4.168,12.209 -5.354,8.424 -7.166,5.853 -8.582,4.288 -3.631,2.241 0,0.894 0,0" /></g><g
           transform="translate(108.6621,157.3101)"
           id="g188"><path
             id="path190"
             style="fill:#f6ae90;fill-opacity:1;fill-rule:nonzero;stroke:none"
             d="M 0,0 C 0,0 -0.158,0.854 -0.691,0.532 -1.22,0.209 -0.254,-3.396 0.53,-3.932 1.314,-4.468 0.644,-0.948 0,0" /></g><g
           transform="translate(116.4795,113.4189)"
           id="g192"><path
             id="path194"
             style="fill:#b8c7c9;fill-opacity:1;fill-rule:nonzero;stroke:none"
             d="m 0,0 h -0.005 c -0.246,0.001 -0.443,0.203 -0.441,0.448 0.05,7.169 -6.29,18.647 -6.356,18.762 -0.117,0.216 -0.041,0.488 0.173,0.607 0.217,0.12 0.488,0.042 0.608,-0.172 C -5.756,19.166 0.496,7.846 0.446,0.442 0.441,0.197 0.242,0 0,0" /></g><g
           transform="translate(104.6309,102.2817)"
           id="g196"><path
             id="path198"
             style="fill:#b8c7c9;fill-opacity:1;fill-rule:nonzero;stroke:none"
             d="m 0,0 c -0.226,0 -0.42,0.172 -0.442,0.402 -0.07,0.695 -1.651,17.083 -0.264,22.457 1.419,5.5 1.126,10.6 -0.78,13.643 -2.565,4.093 -5.489,8.421 -5.517,8.464 -0.137,0.205 -0.085,0.481 0.119,0.62 0.203,0.138 0.481,0.083 0.619,-0.12 0.031,-0.044 2.959,-4.385 5.533,-8.49 2.036,-3.247 2.37,-8.607 0.888,-14.34 C -1.191,17.414 0.429,0.657 0.444,0.489 0.468,0.244 0.29,0.026 0.043,0.002 0.03,0.001 0.015,0 0,0" /></g><g
           transform="translate(65.8828,130.0361)"
           id="g200"><path
             id="path202"
             style="fill:#b8c7c9;fill-opacity:1;fill-rule:nonzero;stroke:none"
             d="m 0,0 c -0.983,0.554 -2.274,-4.47 -3.023,-7.876 2.252,1.642 4.266,2.924 5.744,3.628 0.117,0.057 0.229,0.138 0.336,0.236 C 3.046,-3.993 1.471,-0.827 0,0" /></g><g
           transform="translate(26.5811,115.2632)"
           id="g204"><path
             id="path206"
             style="fill:#d3dfe0;fill-opacity:1;fill-rule:nonzero;stroke:none"
             d="m 0,0 c -0.041,0 -0.085,0.012 -0.121,0.038 -0.105,0.069 -0.13,0.207 -0.061,0.31 9.5,14.126 28.45,24.778 28.64,24.883 0.104,0.061 0.243,0.023 0.304,-0.085 0.06,-0.109 0.021,-0.244 -0.087,-0.304 C 28.484,24.737 9.628,14.136 0.187,0.099 0.143,0.035 0.073,0 0,0" /></g><g
           transform="translate(129.6035,111.7886)"
           id="g208"><path
             id="path210"
             style="fill:#d3dfe0;fill-opacity:1;fill-rule:nonzero;stroke:none"
             d="m 0,0 c -0.023,0 -0.045,0.003 -0.066,0.011 -0.118,0.037 -0.183,0.162 -0.146,0.28 3.256,10.209 -2.428,25.465 -2.484,25.618 -0.043,0.115 0.014,0.244 0.13,0.287 0.117,0.044 0.242,-0.015 0.286,-0.13 C -2.22,25.913 3.516,10.512 0.213,0.155 0.185,0.061 0.096,0 0,0" /></g><g
           transform="translate(110.0869,150.5723)"
           id="g212"><path
             id="path214"
             style="fill:#f6ae90;fill-opacity:1;fill-rule:nonzero;stroke:none"
             d="m 0,0 c -0.297,1.094 -1.048,2.006 -2.068,2.5 -1.274,0.617 -2.856,1.346 -3.087,1.579 -0.379,0.38 0.691,1.416 0.483,1.97 -0.208,0.552 -1.2,-0.278 -1.798,-1.665 -0.316,-0.738 0.212,-1.846 0.78,-2.719 0.753,-1.167 1.312,-2.446 1.676,-3.787 l 0.258,-0.952 4.235,1.307 z" /></g></g></g></g></svg>