<?xml version="1.0" encoding="UTF-8" standalone="no"?>
<svg
   xmlns:dc="http://purl.org/dc/elements/1.1/"
   xmlns:cc="http://creativecommons.org/ns#"
   xmlns:rdf="http://www.w3.org/1999/02/22-rdf-syntax-ns#"
   xmlns:svg="http://www.w3.org/2000/svg"
   xmlns="http://www.w3.org/2000/svg"
   viewBox="0 0 37.594269 94.519997"
   height="94.519997"
   width="37.594269"
   xml:space="preserve"
   id="svg2"  
   version="1.1"><metadata
     id="metadata8"><rdf:RDF><cc:Work
         rdf:about=""><dc:format>image/svg+xml</dc:format><dc:type
           rdf:resource="http://purl.org/dc/dcmitype/StillImage" /></cc:Work></rdf:RDF></metadata><defs
     id="defs6"><linearGradient
       id="linearGradient28"
       spreadMethod="pad"
       gradientTransform="matrix(0,-18.675152,-18.675152,0,14.097232,36.056099)"
       gradientUnits="userSpaceOnUse"
       y2="0"
       x2="1"
       y1="0"
       x1="0"><stop
         id="stop24"
         offset="0"
         style="stop-opacity:1;stop-color:#7cc9d0" /><stop
         id="stop26"
         offset="1"
         style="stop-opacity:1;stop-color:#43b389" /></linearGradient><linearGradient
       id="linearGradient48"
       spreadMethod="pad"
       gradientTransform="matrix(0,-18.689119,-18.689119,0,14.102799,18.689119)"
       gradientUnits="userSpaceOnUse"
       y2="0"
       x2="1"
       y1="0"
       x1="0"><stop
         id="stop44"
         offset="0"
         style="stop-opacity:1;stop-color:#7cc9d0" /><stop
         id="stop46"
         offset="1"
         style="stop-opacity:1;stop-color:#43b389" /></linearGradient><linearGradient
       id="linearGradient68"
       spreadMethod="pad"
       gradientTransform="matrix(0,-18.628698,-18.628698,0,14.090338,53.457138)"
       gradientUnits="userSpaceOnUse"
       y2="0"
       x2="1"
       y1="0"
       x1="0"><stop
         id="stop64"
         offset="0"
         style="stop-opacity:1;stop-color:#7cc9d0" /><stop
         id="stop66"
         offset="1"
         style="stop-opacity:1;stop-color:#43b389" /></linearGradient><linearGradient
       id="linearGradient88"
       spreadMethod="pad"
       gradientTransform="matrix(0,-18.577579,-18.577579,0,14.088816,70.890037)"
       gradientUnits="userSpaceOnUse"
       y2="0"
       x2="1"
       y1="0"
       x1="0"><stop
         id="stop84"
         offset="0"
         style="stop-opacity:1;stop-color:#7cc9d0" /><stop
         id="stop86"
         offset="1"
         style="stop-opacity:1;stop-color:#43b389" /></linearGradient></defs><g
     transform="matrix(1.3333333,0,0,-1.3333333,0,94.52)"
     id="g10"><g
       id="g12"><g
         id="g14"><g
           id="g20"><g
             id="g22"><path
               id="path30"
               style="fill: #FBA844;stroke:none"
               d="M 13.289,35.553 C 9.026,31.302 4.782,27.037 0.511,22.794 v 0 c -0.686,-0.683 -0.626,-1.208 0.051,-1.842 v 0 c 1.005,-0.94 1.998,-1.903 2.92,-2.923 v 0 c 0.76,-0.841 1.344,-0.846 2.146,-0.016 v 0 c 2.494,2.569 5.079,5.053 7.564,7.633 v 0 C 13.917,26.4 14.295,26.355 15,25.618 v 0 c 2.485,-2.583 5.068,-5.069 7.577,-7.63 v 0 c 0.728,-0.743 1.308,-0.856 2.056,-0.046 v 0 c 0.966,1.046 1.977,2.054 3.012,3.028 v 0 c 0.688,0.645 0.705,1.155 0.018,1.832 v 0 c -4.239,4.206 -8.45,8.44 -12.671,12.664 v 0 c -0.258,0.259 -0.493,0.554 -0.99,0.59 v 0 c -0.201,-0.14 -0.494,-0.284 -0.713,-0.503 M 3.773,19.937 C 1.83,21.904 1.799,21.875 3.78,23.858 v 0 c 3.178,3.181 6.376,6.342 9.519,9.557 v 0 c 0.642,0.658 0.972,0.622 1.601,-0.017 v 0 c 3.572,-3.633 7.194,-7.215 10.797,-10.814 v 0 c 0.193,-0.194 0.377,-0.397 0.622,-0.66 v 0 c -0.327,-0.356 -0.62,-0.693 -0.935,-1.012 v 0 c -1.725,-1.743 -1.729,-1.745 -3.416,-0.073 v 0 c -2.314,2.294 -4.642,4.572 -6.911,6.909 v 0 c -0.721,0.742 -1.22,0.721 -1.922,0.005 v 0 C 10.563,25.132 7.929,22.574 5.372,19.941 v 0 C 5.057,19.618 4.815,19.456 4.572,19.456 v 0 c -0.241,0 -0.484,0.161 -0.799,0.481" /></g></g></g></g><g
       id="g32"><g
         id="g34"><g
           id="g40"><g
             id="g42"><path
               id="path50"
               style="fill:#FBA844;stroke:none"
               d="M 13.298,18.258 C 9.026,13.964 4.743,9.68 0.453,5.404 v 0 C -0.126,4.829 -0.144,4.337 0.438,3.768 v 0 C 1.554,2.679 2.65,1.569 3.753,0.464 v 0 C 3.983,0.235 4.214,0.014 4.567,0 v 0 c 0.525,0.022 0.774,0.452 1.088,0.765 v 0 c 2.537,2.526 5.091,5.036 7.577,7.61 v 0 c 0.678,0.702 1.061,0.669 1.72,-0.009 v 0 c 2.523,-2.602 5.127,-5.125 7.653,-7.723 v 0 c 0.757,-0.78 1.31,-0.792 2.039,0 v 0 c 0.993,1.08 2.054,2.098 3.106,3.121 v 0 c 0.577,0.56 0.605,1.046 0.016,1.633 v 0 c -4.29,4.274 -8.575,8.555 -12.842,12.85 v 0 c -0.294,0.294 -0.558,0.442 -0.822,0.442 v 0 c -0.259,0 -0.518,-0.143 -0.804,-0.431 M 3.899,2.489 C 1.79,4.545 1.761,4.522 3.849,6.611 v 0 c 3.146,3.151 6.31,6.282 9.428,9.462 v 0 c 0.603,0.614 0.944,0.719 1.605,0.047 v 0 c 3.569,-3.638 7.192,-7.221 10.79,-10.83 v 0 c 0.216,-0.218 0.526,-0.381 0.554,-0.837 v 0 C 25.415,3.663 24.602,2.784 23.684,2.037 v 0 C 23.407,1.814 23.109,2.379 22.87,2.616 v 0 c -2.544,2.519 -5.108,5.021 -7.584,7.606 v 0 c -0.867,0.906 -1.432,0.983 -2.334,0.044 v 0 C 10.441,7.652 7.826,5.135 5.289,2.546 v 0 C 5.012,2.265 4.802,2.104 4.575,2.104 v 0 c -0.195,0 -0.403,0.12 -0.676,0.385" /></g></g></g></g><g
       id="g52"><g
         id="g54"><g
           id="g60"><g
             id="g62"><path
               id="path70"
               style="fill:#FBA844;stroke:none"
               d="M 13.296,53.028 C 9.021,48.74 4.742,44.46 0.447,40.191 v 0 c -0.652,-0.649 -0.531,-1.15 0.082,-1.732 v 0 C 1.526,37.509 2.53,36.56 3.434,35.525 v 0 c 0.801,-0.92 1.412,-0.877 2.242,-0.021 v 0 c 2.492,2.57 5.044,5.08 7.575,7.61 v 0 c 0.251,0.252 0.517,0.489 0.831,0.788 v 0 c 0.309,-0.284 0.58,-0.516 0.835,-0.769 v 0 c 2.563,-2.562 5.14,-5.112 7.675,-7.704 v 0 c 0.731,-0.749 1.29,-0.846 2.034,-0.016 v 0 c 0.945,1.058 1.964,2.058 3.006,3.025 v 0 c 0.691,0.64 0.729,1.148 0.042,1.827 v 0 c -4.267,4.232 -8.518,8.484 -12.754,12.747 v 0 c -0.294,0.296 -0.558,0.445 -0.823,0.445 v 0 c -0.258,0 -0.516,-0.142 -0.801,-0.429 M 3.889,37.273 C 1.772,39.325 1.753,39.294 3.86,41.398 v 0 c 3.152,3.147 6.302,6.291 9.438,9.453 v 0 c 0.488,0.491 0.806,0.844 1.497,0.137 v 0 c 3.596,-3.672 7.253,-7.286 10.882,-10.926 v 0 c 0.218,-0.219 0.526,-0.39 0.548,-0.848 v 0 c -0.809,-0.788 -1.623,-1.665 -2.541,-2.413 v 0 c -0.249,-0.201 -0.567,0.35 -0.81,0.59 v 0 c -2.509,2.487 -4.999,4.996 -7.503,7.489 v 0 c -1.268,1.266 -1.305,1.258 -2.605,-0.046 v 0 c -2.495,-2.5 -5.005,-4.988 -7.477,-7.512 v 0 C 5.016,37.043 4.803,36.886 4.575,36.886 v 0 c -0.2,0 -0.411,0.121 -0.686,0.387" /></g></g></g></g><g
       id="g72"><g
         id="g74"><g
           id="g80"><g
             id="g82"><path
               id="path90"
               style="fill:#FBA844;stroke:none"
               d="M 13.182,70.385 C 8.985,66.151 4.764,61.941 0.549,57.724 v 0 C 0.293,57.468 -0.023,57.245 0.004,56.819 v 0 c -0.042,-0.432 0.284,-0.653 0.537,-0.908 v 0 c 0.968,-0.978 1.992,-1.904 2.902,-2.933 v 0 c 0.809,-0.913 1.403,-0.863 2.24,10e-4 v 0 c 2.484,2.571 5.07,5.043 7.553,7.618 v 0 c 0.686,0.711 1.048,0.67 1.712,-0.015 v 0 c 2.454,-2.538 5.016,-4.974 7.453,-7.528 v 0 c 0.933,-0.977 1.576,-0.975 2.442,0.03 v 0 c 0.865,1.003 1.84,1.922 2.816,2.823 v 0 c 0.702,0.649 0.679,1.157 0.004,1.827 v 0 c -4.232,4.198 -8.45,8.414 -12.65,12.65 v 0 c -0.334,0.337 -0.625,0.506 -0.916,0.506 v 0 c -0.291,0 -0.581,-0.168 -0.915,-0.505 M 4.155,54.515 C 3.532,55.123 2.934,55.759 2.29,56.346 v 0 c -0.428,0.394 -0.299,0.658 0.054,1.009 v 0 c 3.737,3.718 7.472,7.441 11.182,11.187 v 0 c 0.51,0.517 0.787,0.354 1.211,-0.072 v 0 c 3.687,-3.706 7.39,-7.396 11.084,-11.096 v 0 c 0.202,-0.202 0.627,-0.409 0.286,-0.773 v 0 c -0.717,-0.77 -1.448,-1.535 -2.235,-2.229 v 0 c -0.491,-0.434 -0.707,0.2 -0.943,0.433 v 0 c -2.419,2.379 -4.815,4.784 -7.21,7.189 v 0 c -1.63,1.638 -1.62,1.642 -3.291,-0.04 v 0 C 10.098,59.613 7.764,57.276 5.432,54.941 v 0 C 5.172,54.682 4.897,54.443 4.613,54.179 v 0 C 4.444,54.3 4.284,54.39 4.155,54.515" /></g></g></g></g></g></svg>