<?xml version="1.0" standalone="no"?>
<!DOCTYPE svg PUBLIC "-//W3C//DTD SVG 20010904//EN"
 "http://www.w3.org/TR/2001/REC-SVG-20010904/DTD/svg10.dtd">
<svg version="1.0" xmlns="http://www.w3.org/2000/svg"
 width="357.000000pt" height="236.000000pt" viewBox="0 0 357.000000 236.000000"
 preserveAspectRatio="xMidYMid meet">

<g transform="translate(0.000000,236.000000) scale(0.100000,-0.100000)"
fill="#000000" stroke="none">
<path d="M0 1180 l0 -1180 1785 0 1785 0 0 1180 0 1180 -1785 0 -1785 0 0
-1180z m1930 948 c18 -13 41 -39 51 -58 18 -33 19 -68 19 -568 0 -576 0 -571
-54 -622 -27 -25 -30 -25 -229 -28 -198 -3 -203 -3 -237 20 -19 13 -40 35 -47
48 -10 19 -13 156 -13 578 0 610 -2 593 63 632 29 18 51 20 223 20 182 0 193
-1 224 -22z m-842 -36 c4 -12 0 -13 -50 -16 -31 -2 -38 18 -11 32 19 11 55 1
61 -16z m1353 18 c5 0 9 -7 9 -15 0 -14 -17 -20 -47 -16 -6 1 -14 -3 -18 -9
-9 -14 4 -32 18 -23 16 9 57 10 57 1 0 -4 -13 -8 -30 -8 -16 0 -30 -4 -30 -8
0 -4 -9 -8 -20 -8 -18 0 -19 5 -14 36 7 38 30 63 52 55 8 -3 18 -5 23 -5z
m-1345 -63 c4 -4 -7 -7 -24 -7 -18 0 -32 -4 -32 -8 0 -4 -9 -8 -20 -8 -12 0
-20 7 -20 17 0 13 9 16 45 15 24 -1 48 -5 51 -9z m1281 -79 c-3 -8 -6 -5 -6 6
-1 11 2 17 5 13 3 -3 4 -12 1 -19z m-1357 -3 c0 -8 -2 -15 -4 -15 -2 0 -6 7
-10 15 -3 8 -1 15 4 15 6 0 10 -7 10 -15z m-110 -66 c-44 -47 -55 -69 -35 -69
23 0 18 -16 -10 -28 -32 -15 -35 -15 -35 0 0 21 74 138 87 138 7 0 14 6 14 13
1 6 3 5 6 -4 2 -9 -10 -32 -27 -50z m1404 55 c-7 -3 -9 -14 -6 -26 3 -13 1
-19 -5 -15 -11 7 -57 -38 -66 -65 -5 -13 -1 -18 11 -18 13 0 12 -4 -8 -20 -26
-21 -50 -26 -50 -11 0 4 11 25 25 45 14 20 25 41 25 46 0 16 54 70 70 69 9 0
10 -3 4 -5z m-1138 -18 c18 -14 18 -15 0 -22 -11 -4 -21 -2 -27 7 -19 31 -5
38 27 15z m1363 5 c12 -8 13 -12 1 -26 -10 -13 -15 -13 -21 -3 -20 30 -8 46
20 29z m-1514 -121 c5 -8 11 -8 20 0 19 16 87 9 80 -8 -3 -7 -5 -17 -5 -20 0
-4 -34 -8 -75 -9 l-74 -1 16 24 c17 26 28 30 38 14z m1360 0 c5 -8 11 -8 20 0
7 6 29 10 49 8 30 -2 36 -6 34 -21 -3 -17 -13 -20 -81 -23 l-77 -3 17 24 c20
27 29 30 38 15z m-1122 -41 c14 -6 30 -22 36 -36 15 -34 14 -40 -5 -17 -8 10
-12 13 -9 6 5 -10 -3 -12 -34 -8 -34 4 -41 2 -42 -12 0 -10 -3 -12 -6 -4 -6
15 -43 16 -43 0 0 -6 -3 -8 -6 -5 -12 11 18 69 40 77 29 12 41 12 69 -1z
m1365 0 c18 -6 30 -15 27 -19 -3 -5 -1 -11 5 -15 5 -3 10 -12 10 -18 0 -7 -4
-6 -10 3 -6 10 -10 11 -10 3 0 -15 -52 -14 -62 2 -5 6 -8 2 -8 -9 0 -14 -5
-17 -24 -12 -15 4 -26 1 -29 -7 -3 -6 -6 0 -6 15 -1 17 8 34 25 47 31 24 39
25 82 10z m-1593 -20 c4 -5 -1 -19 -11 -30 -15 -17 -16 -22 -4 -29 12 -7 12
-10 -3 -16 -9 -3 -24 -3 -33 0 -15 6 -14 10 6 31 19 20 20 25 7 25 -10 0 -14
5 -11 15 7 17 40 20 49 4z m57 -12 c6 -29 -7 -67 -23 -67 -6 0 -9 6 -6 14 3 8
1 17 -6 19 -9 3 -8 10 2 30 18 33 27 34 33 4z m1305 8 c3 -9 -3 -25 -12 -35
-11 -12 -13 -20 -7 -20 7 0 12 -4 12 -10 0 -5 -11 -10 -25 -10 -31 0 -32 16
-3 47 17 19 19 23 5 17 -12 -4 -17 -1 -17 10 0 21 39 21 47 1z m63 -13 c0 -16
-7 -37 -16 -48 -13 -16 -15 -16 -10 -1 3 11 0 17 -9 17 -19 0 -19 10 1 38 21
30 34 28 34 -6z m-1573 -24 c-3 -8 -6 -5 -6 6 -1 11 2 17 5 13 3 -3 4 -12 1
-19z m1373 6 c0 -8 -4 -12 -10 -9 -5 3 -10 10 -10 16 0 5 5 9 10 9 6 0 10 -7
10 -16z m-1140 -99 c0 -24 5 -47 10 -50 6 -3 10 -16 10 -29 0 -12 4 -26 10
-32 6 -6 -11 -25 -47 -54 -31 -25 -67 -56 -79 -69 -13 -13 -24 -19 -24 -13 0
5 15 22 33 37 95 81 98 84 87 105 -7 14 -7 20 0 20 13 0 13 27 1 32 -6 2 -13
27 -17 57 -5 40 -4 52 5 47 6 -4 11 -27 11 -51z m1362 3 c2 -25 9 -52 15 -60
6 -7 13 -25 15 -40 5 -25 -3 -35 -63 -84 -38 -31 -69 -60 -69 -65 0 -5 -5 -9
-11 -9 -17 0 13 35 74 86 45 37 55 49 46 60 -9 11 -8 18 1 29 10 12 9 16 -3
20 -8 4 -15 16 -15 28 0 12 -1 27 -2 32 -4 16 0 59 4 54 2 -2 6 -25 8 -51z
m-1606 8 c17 -13 18 -17 4 -38 -10 -16 -14 -55 -15 -133 0 -128 6 -149 41
-141 32 8 31 -2 -1 -14 -14 -5 -25 -16 -25 -25 0 -18 -16 -20 -23 -2 -3 7 -6
5 -6 -5 -1 -10 4 -18 9 -18 6 0 10 -4 10 -10 0 -20 -41 -10 -49 13 -9 22 -9
22 -20 -6 -6 -16 -11 -35 -11 -43 0 -8 -4 -13 -9 -10 -15 10 24 97 49 109 22
11 23 18 21 75 -1 34 -7 77 -12 94 -10 37 -12 128 -3 152 8 20 15 20 40 2z
m164 4 c0 -5 -9 -10 -21 -10 -12 0 -23 -8 -26 -20 -3 -11 -8 -20 -12 -20 -15
1 -41 29 -41 44 0 13 10 16 50 16 28 0 50 -4 50 -10z m1200 -5 c9 -11 10 -22
2 -42 -18 -49 -21 -76 -13 -148 5 -38 5 -75 0 -80 -12 -17 18 -48 41 -42 11 3
20 2 20 -3 0 -4 -11 -11 -25 -14 -14 -4 -25 -13 -25 -22 0 -8 -4 -12 -10 -9
-5 3 -10 2 -10 -4 0 -5 6 -11 13 -14 8 -3 6 -7 -6 -12 -18 -8 -50 11 -42 25 3
4 -2 11 -11 14 -17 7 -9 29 9 23 35 -11 42 70 19 210 -16 99 3 160 38 118z
m160 5 c0 -5 -9 -10 -19 -10 -11 0 -23 -9 -26 -20 -7 -23 -14 -24 -38 -6 -30
23 -11 46 39 46 24 0 44 -4 44 -10z m-245 -406 l-15 -39 6 35 c7 38 14 54 20
47 2 -2 -3 -21 -11 -43z m-1067 -71 c-4 -22 -22 -20 -26 1 -2 10 3 16 13 16
10 0 15 -7 13 -17z m1366 9 c2 -4 0 -14 -5 -22 -8 -13 -10 -13 -19 0 -5 8 -10
18 -10 23 0 10 28 9 34 -1z m-1300 -188 c11 -29 6 -49 -16 -64 -35 -23 -78
-30 -78 -14 0 8 7 14 15 14 11 0 12 5 5 25 -7 18 -6 25 3 25 8 0 8 3 -2 9 -11
7 -10 10 5 14 38 10 62 7 68 -9z m1364 -20 c3 -33 -18 -54 -65 -66 -26 -7 -42
9 -19 18 11 4 15 16 12 39 -5 36 7 45 49 42 15 -2 21 -10 23 -33z m-988 -145
c-13 -9 -12 -10 3 -5 9 3 24 9 32 12 10 4 15 0 16 -12 0 -18 1 -17 9 1 8 19 8
19 18 -5 l11 -25 2 25 c1 24 2 23 9 -5 l8 -30 2 30 2 30 8 -30 8 -30 1 27 c1
25 4 27 44 25 32 -1 44 -6 49 -22 6 -19 6 -19 7 3 1 12 6 22 11 22 11 0 14
-49 3 -51 -49 -6 -214 -5 -219 2 -3 5 -12 9 -20 9 -8 0 -12 -4 -9 -10 3 -5 1
-10 -4 -10 -12 0 -15 43 -4 53 3 4 11 7 17 7 6 0 4 -5 -4 -11z m360 -19 c0
-23 -4 -26 -40 -26 -36 0 -40 2 -41 25 -1 25 -2 25 -9 -4 l-8 -30 -1 32 -1 31
50 -1 c46 -2 50 -4 50 -27z m-1038 -171 c-4 -39 14 -30 20 10 1 14 9 26 17 29
10 3 12 -4 9 -32 -2 -19 1 -37 6 -39 6 -2 2 -12 -8 -22 -12 -12 -14 -21 -7
-23 16 -5 14 -29 -3 -35 -8 -3 -16 -18 -18 -33 -2 -15 -9 -29 -17 -32 -10 -3
-12 4 -9 32 5 44 -8 48 -20 4 -13 -53 -31 -46 -30 11 1 28 5 51 10 51 4 0 8 7
8 15 0 8 -4 15 -10 15 -5 0 -10 5 -10 10 0 6 7 10 15 10 8 0 15 9 15 19 0 30
11 52 24 48 6 -2 10 -19 8 -38z m137 -9 c6 -28 11 -58 11 -67 0 -33 15 1 25
55 8 48 14 58 33 60 23 3 23 3 20 -104 -2 -75 -7 -109 -15 -112 -9 -2 -13 13
-14 55 l-1 58 -13 -53 c-7 -30 -16 -56 -18 -59 -13 -13 -27 12 -34 60 l-8 52
-5 -54 c-3 -31 -10 -56 -17 -59 -10 -3 -13 23 -13 107 0 103 1 111 19 111 15
0 22 -11 30 -50z m185 28 c10 -49 26 -156 26 -176 0 -28 -20 -29 -27 -2 -3 11
-14 20 -24 20 -12 0 -19 -7 -19 -20 0 -11 -7 -20 -15 -20 -18 0 -18 9 -5 103
16 111 18 117 40 117 12 0 21 -8 24 -22z m87 -15 l1 -38 12 35 c7 19 20 36 29
38 21 4 21 -3 1 -62 -15 -43 -15 -51 0 -89 20 -53 20 -67 1 -67 -8 0 -20 18
-27 43 l-13 42 -5 -40 c-3 -27 -10 -40 -20 -40 -12 0 -16 18 -18 94 -3 104 0
121 23 121 11 0 15 -11 16 -37z m149 23 c0 -7 -9 -16 -20 -19 -14 -3 -20 -14
-20 -31 0 -19 5 -26 20 -26 11 0 20 -7 20 -15 0 -8 -9 -15 -20 -15 -16 0 -20
-7 -20 -31 0 -22 5 -32 20 -36 35 -9 24 -33 -15 -33 l-35 0 0 110 0 110 35 0
c23 0 35 -5 35 -14z m546 3 c4 -7 -1 -16 -10 -21 -13 -7 -16 -26 -16 -98 0
-73 -3 -90 -15 -90 -12 0 -15 17 -15 95 0 78 -3 95 -15 95 -16 0 -20 12 -8 23
11 11 71 8 79 -4z m52 -37 c4 -57 22 -54 22 4 0 38 3 45 18 42 15 -3 17 -16
17 -108 0 -87 -3 -105 -15 -105 -11 0 -16 13 -18 48 -4 61 -20 61 -24 0 -2
-36 -7 -49 -20 -51 -16 -3 -18 7 -18 108 0 101 2 111 18 108 12 -2 18 -15 20
-46z m160 31 c2 -8 -5 -13 -17 -13 -29 0 -30 -55 -1 -63 11 -3 20 -10 20 -16
0 -6 -9 -11 -20 -11 -16 0 -20 -7 -20 -35 0 -28 4 -35 20 -35 11 0 20 -7 20
-16 0 -12 -9 -14 -37 -12 l-38 3 -3 94 c-1 52 0 101 3 108 6 18 67 14 73 -4z
m60 -81 c3 -85 4 -92 23 -92 12 0 19 -5 17 -12 -3 -7 -20 -13 -39 -13 l-34 0
-3 108 c-2 100 -1 108 15 105 15 -3 18 -16 21 -96z m136 76 c20 -27 21 -132 3
-168 -15 -30 -48 -37 -71 -15 -23 23 -23 167 0 189 22 22 50 20 68 -6z m114
10 c18 -18 15 -68 -3 -68 -9 0 -15 9 -15 25 0 14 -4 25 -10 25 -12 0 -22 -56
-16 -100 2 -19 4 -41 5 -47 0 -7 6 -13 12 -13 8 0 10 15 7 45 -5 39 -3 45 13
45 16 0 19 -8 19 -58 l0 -59 -36 2 c-19 0 -39 7 -44 15 -17 26 -12 167 6 184
18 19 45 21 62 4z m120 0 c7 -7 12 -44 12 -98 0 -88 -8 -110 -41 -110 -37 0
-49 28 -49 110 0 58 4 83 16 94 18 19 45 21 62 4z"/>
<path d="M1491 2084 l-31 -25 -2 -370 c-3 -339 -2 -369 14 -369 43 0 46 7 40
108 -8 146 -6 211 8 227 10 12 10 15 0 15 -18 0 -39 31 -40 58 0 35 85 208
111 225 13 9 45 21 72 28 44 11 60 30 37 44 -11 7 -3 53 13 73 7 9 -12 12 -91
12 -93 0 -103 -2 -131 -26z"/>
<path d="M1811 2089 c11 -21 8 -65 -5 -99 -5 -11 6 -22 40 -38 l47 -23 -7 -75
-7 -74 28 2 c16 1 34 -2 42 -6 10 -7 12 19 9 134 l-3 142 -33 29 c-26 23 -42
29 -78 29 -43 0 -44 -1 -33 -21z"/>
<path d="M1802 1639 c1 -39 7 -69 15 -78 8 -7 12 -20 8 -29 -3 -8 0 -21 6 -29
9 -10 9 -17 1 -25 -7 -7 -12 -23 -12 -35 0 -13 -8 -36 -17 -50 -15 -22 -18
-55 -21 -177 -1 -83 -4 -164 -5 -181 -2 -17 5 -40 15 -54 24 -32 23 -57 -4
-75 -21 -15 -19 -16 40 -16 132 0 132 -1 132 407 l0 329 -42 -4 c-39 -4 -45
-1 -79 38 l-38 43 1 -64z"/>
<path d="M1637 1347 c-9 -17 -18 -44 -22 -59 -9 -37 -31 -52 -68 -50 -26 2
-34 -3 -44 -25 -7 -15 -13 -34 -13 -42 0 -9 -8 -29 -18 -45 -14 -23 -16 -44
-12 -113 7 -114 17 -123 146 -123 83 0 94 2 95 18 0 9 3 37 6 62 7 49 8 98 4
200 -3 66 -35 195 -50 205 -5 2 -16 -10 -24 -28z m-129 -299 l10 -33 1 33 c2
62 21 32 21 -33 0 -68 -12 -84 -28 -37 l-10 27 -1 -27 c-1 -16 -5 -28 -11 -28
-6 0 -10 28 -10 65 0 71 11 84 28 33z m104 -18 c9 -60 2 -80 -28 -80 -23 0
-24 3 -24 66 0 62 1 65 23 62 18 -2 23 -11 29 -48z m67 -12 c11 -63 7 -84 -10
-58 -7 13 -10 13 -18 1 -18 -28 -26 -4 -18 57 12 82 31 83 46 0z"/>
<path d="M1581 1044 c0 -11 3 -14 6 -6 3 7 2 16 -1 19 -3 4 -6 -2 -5 -13z"/>
<path d="M1582 985 c0 -16 2 -22 5 -12 2 9 2 23 0 30 -3 6 -5 -1 -5 -18z"/>
<path d="M1651 1004 c0 -11 3 -14 6 -6 3 7 2 16 -1 19 -3 4 -6 -2 -5 -13z"/>
<path d="M836 564 c-4 -10 -1 -14 6 -12 15 5 23 28 10 28 -5 0 -13 -7 -16 -16z"/>
<path d="M1147 573 c-11 -10 -8 -53 3 -53 6 0 10 14 10 30 0 31 -2 35 -13 23z"/>
<path d="M2320 560 c0 -47 4 -80 10 -80 6 0 10 33 10 80 0 47 -4 80 -10 80 -6
0 -10 -33 -10 -80z"/>
<path d="M2555 628 c-9 -24 -1 -143 10 -143 13 0 19 135 6 148 -7 7 -12 5 -16
-5z"/>
</g>
</svg>
