<?xml version="1.0" encoding="UTF-8" standalone="no"?>
<svg
   xmlns:dc="http://purl.org/dc/elements/1.1/"
   xmlns:cc="http://creativecommons.org/ns#"
   xmlns:rdf="http://www.w3.org/1999/02/22-rdf-syntax-ns#"
   xmlns:svg="http://www.w3.org/2000/svg"
   xmlns="http://www.w3.org/2000/svg"
   viewBox="0 0 404.76266 75.782532"
   height="75.782532"
   width="404.76266"
   xml:space="preserve"
   id="svg2"
   version="1.1"><metadata
     id="metadata8"><rdf:RDF><cc:Work
         rdf:about=""><dc:format>image/svg+xml</dc:format><dc:type
           rdf:resource="http://purl.org/dc/dcmitype/StillImage" /></cc:Work></rdf:RDF></metadata><defs
     id="defs6"><clipPath
       id="clipPath18"
       clipPathUnits="userSpaceOnUse"><path
         id="path16"
         d="M 0,56.837 H 303.572 V 0 H 0 Z" /></clipPath></defs><g
     transform="matrix(1.3333333,0,0,-1.3333333,0,75.782533)"
     id="g10"><g
       id="g12"><g
         clip-path="url(#clipPath18)"
         id="g14"><g
           transform="translate(94.8462,31.8916)"
           id="g20"><path
             id="path22"
             style="fill:#ede2d7;fill-opacity:1;fill-rule:nonzero;stroke:none"
             d="M 0,0 H 3.438 C 5.249,0 6.723,-1.479 6.723,-3.289 6.723,-5.1 5.249,-6.573 3.44,-6.573 L 0,-6.567 Z m 7.123,-17.785 h 3.904 l -4.366,8.764 c 2.159,1.006 3.659,3.198 3.659,5.732 0,2.799 -1.827,5.178 -4.35,6.008 C 5.35,2.923 4.43,3.034 3.64,3.034 2.85,3.034 0,3.039 0,3.039 V 3.044 H -3.614 V -17.785 H 0 v 8.179 l 3.126,-0.003 z" /></g><g
           transform="translate(17.7769,34.9365)"
           id="g24"><path
             id="path26"
             style="fill:#ede2d7;fill-opacity:1;fill-rule:nonzero;stroke:none"
             d="m 0,0 v -20.83 h -3.428 v 14.318 l -5.474,-10.095 -5.526,10.095 V -20.83 h -3.349 V 0 h 3.03 L -8.875,-10.68 -3.002,0 Z" /></g><path
           id="path28"
           style="fill:#ede2d7;fill-opacity:1;fill-rule:nonzero;stroke:none"
           d="m 108.196,34.937 h 3.614 v -20.83 h -3.614 z" /><g
           transform="translate(42.5547,14.1064)"
           id="g30"><path
             id="path32"
             style="fill:#ede2d7;fill-opacity:1;fill-rule:nonzero;stroke:none"
             d="M 0,0 V 14.332 L 7.792,0 h 3.235 V 20.829 H 7.679 V 6.523 L -0.113,20.829 H -3.375 L -3.375,0 Z" /></g><g
           transform="translate(26.0088,22.4932)"
           id="g34"><path
             id="path36"
             style="fill:#ede2d7;fill-opacity:1;fill-rule:nonzero;stroke:none"
             d="M 0,0 2.402,8.217 2.403,8.218 4.806,0 Z m 7.258,-8.387 h 3.914 L 4.21,12.443 H 0.702 l -6.934,-20.83 h 3.78 l 1.551,5.305 h 6.609 z" /></g><g
           transform="translate(118.5615,14.1064)"
           id="g38"><path
             id="path40"
             style="fill:#ede2d7;fill-opacity:1;fill-rule:nonzero;stroke:none"
             d="M 0,0 V 14.332 L 7.793,0 h 3.234 V 20.829 H 7.679 V 6.523 L -0.113,20.829 H -3.375 L -3.375,0 Z" /></g><g
           transform="translate(66.4868,42.4873)"
           id="g42"><path
             id="path44"
             style="fill:#ede2d7;fill-opacity:1;fill-rule:nonzero;stroke:none"
             d="m 0,0 c 0,0.08 -0.002,0.159 -0.005,0.238 -0.079,0.003 -0.159,0.006 -0.238,0.006 -3.235,0 -5.858,-2.623 -5.858,-5.857 0,-0.08 0.003,-0.159 0.006,-0.239 0.079,-0.002 0.158,-0.005 0.238,-0.005 C -2.623,-5.857 0,-3.234 0,0" /></g><g
           transform="translate(61.394,17.4541)"
           id="g46"><path
             id="path48"
             style="fill:#ede2d7;fill-opacity:1;fill-rule:nonzero;stroke:none"
             d="M 0,0 H -1.008 V 14.133 H 0 c 1.948,0 3.911,-0.595 5.19,-1.873 C 6.471,10.979 7.067,9.016 7.067,7.066 7.067,5.118 6.471,3.154 5.191,1.875 3.912,0.596 1.948,0 0,0 M 0.079,17.481 H -4.435 V -3.348 h 4.514 c 2.849,0 5.632,0.953 7.514,2.813 1.912,1.89 2.901,4.709 2.901,7.601 0,2.893 -0.988,5.709 -2.897,7.598 -1.883,1.863 -4.667,2.817 -7.518,2.817" /></g><g
           transform="translate(78.1016,22.4932)"
           id="g50"><path
             id="path52"
             style="fill:#ede2d7;fill-opacity:1;fill-rule:nonzero;stroke:none"
             d="M 0,0 2.402,8.217 V 8.218 L 4.805,0 Z m 7.258,-8.387 h 3.913 L 4.209,12.443 H 0.702 l -6.936,-20.83 h 3.781 l 1.551,5.305 h 6.609 z" /></g><g
           transform="translate(159.7729,56.8369)"
           id="g54"><path
             id="path56"
             style="fill:#ede2d7;fill-opacity:1;fill-rule:nonzero;stroke:#ede2d7;stroke-width:1;stroke-linecap:butt;stroke-linejoin:miter;stroke-miterlimit:10;stroke-dasharray:none;stroke-opacity:1"
             d="M 0,0 V -56.837" /></g><g
           transform="translate(265.7046,37.6123)"
           id="g58"><path
             id="path60"
             style="fill:#ede2d7;fill-opacity:1;fill-rule:evenodd;stroke:none"
             d="m 0,0 c 0,-0.225 -0.008,-0.448 0.002,-0.672 0.024,-0.599 0.21,-1.16 0.832,-1.32 0.643,-0.164 1.073,0.308 1.346,0.801 0.572,1.037 0.732,2.187 0.662,3.355 C 2.813,2.662 2.567,3.129 2.054,3.299 1.502,3.48 1.134,3.117 0.821,2.727 0.186,1.931 -0.01,0.994 0,0 M 1.736,-5.117 C 1.067,-5.31 0.515,-5.561 -0.06,-5.621 -2.682,-5.904 -4.291,-4.75 -4.778,-2.144 -5.299,0.646 -4.754,3.224 -2.762,5.335 -0.895,7.312 1.67,7.508 3.872,5.918 4.19,5.688 4.327,5.654 4.566,5.985 5.417,7.164 6.654,6.723 7.765,6.651 8.246,6.62 8.316,6.104 8.246,5.665 7.648,1.908 7.2,-1.881 6.404,-5.596 c -1.022,-4.776 -6.757,-7.202 -11.163,-4.898 -0.947,0.494 -1.21,1.517 -0.7,2.719 0.536,1.259 1.187,1.594 2.339,1.15 0.698,-0.271 1.386,-0.545 2.148,-0.563 1.522,-0.041 2.222,0.467 2.708,2.071" /></g><g
           transform="translate(224.0083,37.5762)"
           id="g62"><path
             id="path64"
             style="fill:#ede2d7;fill-opacity:1;fill-rule:evenodd;stroke:none"
             d="m 0,0 c 0,-0.261 -0.017,-0.522 0.003,-0.782 0.041,-0.515 0.241,-0.966 0.747,-1.155 0.552,-0.206 0.991,0.136 1.238,0.54 0.741,1.211 1.096,2.544 0.719,3.949 C 2.446,3.522 1.639,3.658 0.936,2.902 0.178,2.087 -0.018,1.072 0,0 m 3.54,6.32 c 0.235,1.523 0.502,3.024 0.688,4.536 0.126,1.032 0.609,1.55 1.67,1.512 0.708,-0.025 1.418,-0.01 2.127,-0.01 0.872,0 1.195,-0.415 1.055,-1.281 C 8.542,7.729 8.028,4.377 7.503,1.028 7.248,-0.593 6.978,-2.21 6.737,-3.831 6.643,-4.475 6.594,-5.216 5.814,-5.306 4.892,-5.41 3.799,-5.806 3.093,-4.915 c -0.429,0.54 -0.621,0.363 -1.037,0.106 -3.397,-2.112 -6.881,-0.245 -7.013,3.738 -0.074,2.23 0.371,4.314 1.821,6.067 1.729,2.093 3.837,2.497 6.676,1.324" /></g><g
           transform="translate(275.9985,19.251)"
           id="g66"><path
             id="path68"
             style="fill:#ede2d7;fill-opacity:1;fill-rule:evenodd;stroke:none"
             d="M 0,0 C 0,0.261 0.021,0.525 -0.005,0.783 -0.054,1.292 -0.238,1.755 -0.76,1.926 -1.301,2.102 -1.757,1.8 -2.005,1.381 -2.727,0.163 -3.082,-1.173 -2.693,-2.572 -2.422,-3.553 -1.627,-3.677 -0.923,-2.905 -0.174,-2.085 0.004,-1.066 0,0 m -3.519,-6.314 c -0.254,-1.597 -0.53,-3.1 -0.72,-4.613 -0.125,-0.993 -0.619,-1.458 -1.606,-1.461 -3.797,-0.017 -3.494,-0.236 -2.938,3.113 0.731,4.407 1.387,8.826 2.08,13.24 0.094,0.598 0.194,1.284 0.943,1.337 0.929,0.065 2.002,0.474 2.72,-0.427 0.377,-0.473 0.563,-0.404 0.942,-0.113 1.114,0.853 2.413,0.967 3.73,0.781 C 3.034,5.343 4.044,4.532 4.495,3.18 5.43,0.383 5.069,-2.296 3.375,-4.692 1.687,-7.076 -0.686,-7.595 -3.519,-6.314" /></g><g
           transform="translate(262.769,19.2441)"
           id="g70"><path
             id="path72"
             style="fill:#ede2d7;fill-opacity:1;fill-rule:evenodd;stroke:none"
             d="M 0,0 C 0,0.261 0.02,0.523 -0.005,0.783 -0.051,1.292 -0.234,1.755 -0.754,1.93 -1.293,2.112 -1.751,1.812 -2,1.394 -2.728,0.177 -3.079,-1.159 -2.696,-2.559 -2.427,-3.541 -1.632,-3.671 -0.928,-2.904 -0.177,-2.085 0.003,-1.067 0,0 m -3.515,-6.327 c -0.245,-1.516 -0.532,-3.004 -0.713,-4.506 -0.124,-1.03 -0.586,-1.548 -1.641,-1.551 -3.77,-0.008 -3.472,-0.237 -2.911,3.139 0.729,4.408 1.386,8.828 2.081,13.241 0.087,0.557 0.175,1.21 0.854,1.292 0.934,0.112 1.993,0.46 2.748,-0.343 C -2.701,4.523 -2.563,4.464 -2.072,4.772 1.312,6.903 4.681,5.179 4.939,1.212 5.04,-0.337 4.835,-1.835 4.205,-3.264 2.721,-6.625 -0.096,-7.771 -3.515,-6.327" /></g><g
           transform="translate(234.772,23.9541)"
           id="g74"><path
             id="path76"
             style="fill:#ede2d7;fill-opacity:1;fill-rule:evenodd;stroke:none"
             d="m 0,0 c 1.053,0.595 2.036,0.957 3.166,0.901 1.819,-0.089 3.021,-1.069 3.075,-2.876 0.092,-2.964 -0.672,-5.841 -1.138,-8.744 -0.129,-0.792 -0.93,-0.822 -1.554,-0.763 -1.033,0.094 -2.212,-0.467 -3.053,0.488 -0.197,0.225 -0.057,0.794 0.004,1.192 0.247,1.621 0.547,3.235 0.777,4.857 0.077,0.543 0.399,1.338 -0.46,1.485 -0.77,0.132 -1.372,-0.369 -1.534,-1.165 -0.245,-1.203 -0.417,-2.423 -0.62,-3.637 -0.068,-0.404 -0.136,-0.808 -0.2,-1.213 -0.312,-1.968 -0.387,-2.031 -2.427,-2.034 -2.737,-0.003 -2.707,0.001 -2.261,2.669 0.748,4.484 1.468,8.973 2.132,13.47 0.168,1.136 0.633,1.69 1.796,1.634 C -1.626,6.23 -0.953,6.242 -0.281,6.248 0.614,6.256 0.904,5.805 0.767,4.959 0.504,3.346 0.266,1.729 0,0" /></g><g
           transform="translate(276.2671,32.1787)"
           id="g78"><path
             id="path80"
             style="fill:#ede2d7;fill-opacity:1;fill-rule:evenodd;stroke:none"
             d="m 0,0 c -2.373,0.011 -2.383,0.014 -2.033,2.289 0.437,2.838 0.891,5.673 1.343,8.508 0.096,0.602 0.215,1.281 0.969,1.312 0.957,0.042 2.132,0.536 2.763,-0.551 0.407,-0.702 0.623,-0.477 1.056,-0.157 0.958,0.711 2.027,1.051 3.243,1.006 1.938,-0.071 3.131,-1.1 3.161,-3.028 C 10.547,6.487 9.782,3.688 9.381,0.846 9.356,0.675 9.244,0.491 9.121,0.363 8.662,-0.11 5.352,-0.175 4.892,0.273 4.471,0.683 4.668,1.191 4.736,1.65 4.98,3.272 5.288,4.885 5.519,6.509 5.596,7.052 5.936,7.857 5.116,8.035 4.298,8.211 3.675,7.685 3.515,6.83 3.234,5.328 3.024,3.812 2.759,2.306 2.351,-0.013 2.342,-0.012 0,0" /></g><g
           transform="translate(249.4692,19.085)"
           id="g82"><path
             id="path84"
             style="fill:#ede2d7;fill-opacity:1;fill-rule:evenodd;stroke:none"
             d="m 0,0 c 0,0.433 0.006,0.582 -0.001,0.729 -0.027,0.584 -0.166,1.161 -0.77,1.36 -0.654,0.216 -1.04,-0.292 -1.348,-0.757 -0.717,-1.076 -0.795,-2.295 -0.651,-3.531 0.054,-0.453 0.31,-0.87 0.784,-0.999 0.496,-0.136 0.862,0.185 1.137,0.544 C -0.185,-1.793 -0.044,-0.765 0,0 m -0.634,5.806 c 4.238,0 6.251,-2.665 5.39,-7.133 -0.863,-4.478 -5.387,-6.883 -9.628,-5.122 -2.107,0.875 -3.04,2.683 -2.853,5.523 0.281,4.239 2.908,6.732 7.091,6.732" /></g><g
           transform="translate(287.0659,19.4492)"
           id="g86"><path
             id="path88"
             style="fill:#ede2d7;fill-opacity:1;fill-rule:evenodd;stroke:none"
             d="M 0,0 C 0.77,0.046 1.543,0.761 1.494,1.368 1.461,1.776 1.222,1.956 0.842,1.958 0.292,1.962 -0.474,1.008 -0.497,0.37 -0.512,-0.048 -0.261,-0.006 0,0 m -0.677,-2.407 c 0.163,-0.721 0.608,-0.959 1.218,-0.998 0.804,-0.052 1.548,0.173 2.272,0.492 0.768,0.338 1.487,0.544 1.999,-0.427 0.519,-0.983 0.437,-2.207 -0.31,-2.764 -1.791,-1.338 -6.597,-1.797 -8.568,0.049 -2.002,1.874 -1.908,4.199 -1.235,6.54 1.165,4.059 4.678,5.509 8.53,4.789 C 4.66,5.008 5.632,4.09 5.897,2.597 6.178,1.02 5.679,-0.294 4.383,-1.241 3.057,-2.212 1.513,-2.421 -0.084,-2.378 -0.261,-2.374 -0.437,-2.396 -0.677,-2.407" /></g><g
           transform="translate(239.6782,40.5234)"
           id="g90"><path
             id="path92"
             style="fill:#ede2d7;fill-opacity:1;fill-rule:evenodd;stroke:none"
             d="M 0,0 C -0.029,0.462 -0.319,0.705 -0.731,0.601 -1.503,0.407 -1.805,-0.238 -1.977,-0.944 -2.07,-1.332 -1.811,-1.356 -1.521,-1.345 -0.769,-1.315 0.034,-0.609 0,0 m -2.147,-3.86 c 0.141,-0.611 0.585,-0.853 1.195,-0.886 0.763,-0.042 1.472,0.15 2.168,0.452 0.774,0.336 1.552,0.66 2.102,-0.389 0.519,-0.985 0.411,-2.176 -0.308,-2.771 -1.833,-1.519 -6.678,-1.567 -8.481,-0.006 -2.12,1.834 -2.007,4.223 -1.324,6.606 1.163,4.058 4.683,5.507 8.532,4.787 C 3.168,3.664 4.138,2.745 4.403,1.251 4.683,-0.324 4.183,-1.638 2.887,-2.586 1.56,-3.555 0.016,-3.767 -1.581,-3.717 -1.766,-3.711 -1.954,-3.652 -2.147,-3.86" /></g><g
           transform="translate(191.9722,34.1377)"
           id="g94"><path
             id="path96"
             style="fill:#ede2d7;fill-opacity:1;fill-rule:evenodd;stroke:none"
             d="m 0,0 c -1.057,-1.353 -2.288,-2.107 -3.883,-2.151 -2.125,-0.056 -3.291,1.024 -3.336,3.153 -0.044,2.027 0.508,3.988 0.75,5.984 0.085,0.701 0.241,1.395 0.337,2.096 0.058,0.42 0.083,0.828 0.613,0.933 0.668,0.132 1.354,0.214 1.968,-0.116 C -3.271,9.749 -3.4,9.351 -3.445,9.063 -3.766,6.999 -4.095,4.937 -4.421,2.876 -4.45,2.692 -4.513,2.509 -4.51,2.327 -4.497,1.502 -4.84,0.486 -3.765,0.095 c 1.022,-0.371 1.791,0.274 2.44,0.971 0.657,0.707 0.901,1.608 1.044,2.546 0.28,1.841 0.582,3.679 0.885,5.518 0.143,0.866 0.738,1.109 1.986,0.966 C 3.557,9.984 3.33,9.371 3.235,8.788 2.9,6.69 2.516,4.599 2.244,2.492 2.136,1.651 1.835,0.584 2.91,0.115 3.947,-0.339 4.706,0.365 5.305,1.102 7.041,3.244 7.22,5.729 6.676,8.301 6.488,9.184 6.265,9.921 7.469,10.16 8.719,10.41 9.229,10.149 9.445,8.883 10.012,5.531 9.55,2.404 7.14,-0.189 5.977,-1.44 4.526,-2.158 2.781,-2.15 1.26,-2.143 0.563,-1.626 0,0" /></g><g
           transform="translate(222.1548,12.209)"
           id="g98"><path
             id="path100"
             style="fill:#ede2d7;fill-opacity:1;fill-rule:evenodd;stroke:none"
             d="m 0,0 c -1.124,-0.076 -2.25,0.14 -3.312,0.653 -1.113,0.538 -1.38,1.582 -0.756,2.842 0.56,1.134 1.113,1.293 2.352,0.641 C -1.15,3.839 -0.573,3.577 0.054,3.465 0.447,3.395 0.972,3.291 1.095,3.809 1.208,4.282 0.693,4.364 0.36,4.485 c -0.524,0.191 -1.078,0.306 -1.59,0.518 -1.134,0.471 -2.174,1.08 -2.353,2.449 -0.211,1.608 0.092,3.098 1.504,4.08 2.213,1.539 4.628,1.486 7.045,0.59 C 5.975,11.748 6.217,10.481 5.655,9.317 5.159,8.286 4.656,8.131 3.477,8.7 2.798,9.029 2.126,9.337 1.346,9.254 1.115,9.229 0.876,9.168 0.858,8.903 0.845,8.7 1.044,8.601 1.229,8.541 1.761,8.372 2.298,8.219 2.822,8.031 4.92,7.28 5.742,6.139 5.646,4.134 5.555,2.203 4.41,0.804 2.491,0.269 1.692,0.045 0.88,-0.029 0,0" /></g><g
           transform="translate(248.1431,31.9424)"
           id="g102"><path
             id="path104"
             style="fill:#ede2d7;fill-opacity:1;fill-rule:evenodd;stroke:none"
             d="m 0,0 c -1.117,-0.077 -2.243,0.145 -3.303,0.658 -1.105,0.538 -1.366,1.595 -0.735,2.851 0.566,1.126 1.105,1.275 2.359,0.619 C -1.08,3.814 -0.469,3.539 0.203,3.443 0.566,3.393 1.025,3.344 1.125,3.821 1.216,4.252 0.77,4.346 0.474,4.457 c -0.557,0.207 -1.149,0.324 -1.697,0.552 -1.132,0.47 -2.167,1.087 -2.34,2.458 -0.205,1.61 0.103,3.097 1.519,4.073 2.217,1.53 4.632,1.479 7.048,0.575 C 6.002,11.741 6.237,10.455 5.672,9.301 5.175,8.285 4.669,8.137 3.484,8.708 2.84,9.018 2.202,9.314 1.463,9.262 1.235,9.245 0.967,9.229 0.9,8.984 0.805,8.627 1.146,8.575 1.37,8.495 1.86,8.322 2.368,8.199 2.858,8.023 4.914,7.283 5.739,6.166 5.678,4.229 5.615,2.247 4.459,0.809 2.498,0.264 1.699,0.042 0.886,-0.027 0,0" /></g><g
           transform="translate(194.8335,17.7832)"
           id="g106"><path
             id="path108"
             style="fill:#ede2d7;fill-opacity:1;fill-rule:evenodd;stroke:none"
             d="m 0,0 c -0.063,-2.021 0.514,-3.088 1.695,-3.366 1.14,-0.27 2.51,0.549 3.179,1.963 0.549,1.159 0.797,2.397 0.707,3.686 C 5.507,3.337 5.216,4.316 4.093,4.677 2.973,5.038 2.052,4.561 1.32,3.713 0.349,2.585 0.059,1.215 0,0 m -2.756,-0.405 c 0.062,2.195 0.609,4.214 2.291,5.744 1.863,1.692 4.058,1.91 6.364,1.162 C 6.944,6.163 7.682,5.364 7.972,4.305 8.77,1.394 8.365,-1.325 6.334,-3.642 4.854,-5.328 2.874,-5.788 0.737,-5.44 c -2.438,0.396 -3.584,2.125 -3.493,5.035" /></g><g
           transform="translate(301.0903,20.5059)"
           id="g110"><path
             id="path112"
             style="fill:#ede2d7;fill-opacity:1;fill-rule:evenodd;stroke:none"
             d="m 0,0 c -1.901,0.085 -2.39,-0.328 -2.655,-2.185 -0.216,-1.512 -0.476,-3.019 -0.693,-4.532 -0.125,-0.876 -0.57,-1.343 -1.481,-1.327 -0.82,0.012 -1.642,-0.006 -2.463,0.016 -0.712,0.018 -1.008,0.428 -0.902,1.109 0.515,3.314 1.038,6.625 1.566,9.937 0.107,0.67 0.481,1.111 1.199,1.079 0.979,-0.042 2.124,0.441 2.704,-0.924 0.191,-0.447 0.509,0.022 0.7,0.167 C -1.03,4.095 0.067,4.453 1.319,4.335 1.664,4.302 2.05,4.29 2.211,3.967 2.723,2.937 2.421,1.923 2.015,0.948 1.689,0.168 1.092,-0.2 0.223,-0.016 0.15,0 0.074,-0.005 0,0" /></g><g
           transform="translate(207.5073,38.9131)"
           id="g114"><path
             id="path116"
             style="fill:#ede2d7;fill-opacity:1;fill-rule:evenodd;stroke:none"
             d="M 0,0 C 0.756,0.057 1.765,0.146 2.586,0.816 3.112,1.245 3.397,1.83 3.152,2.501 2.903,3.182 2.308,3.409 1.621,3.379 0.258,3.316 -0.516,2.455 -1.062,1.328 -1.674,0.07 -1.596,-0.044 0,0 m -4.445,-1.945 c 0.058,2.253 0.608,4.184 2.136,5.736 C -0.684,5.44 1.324,5.749 3.479,5.309 4.73,5.054 5.503,4.19 5.682,2.923 5.911,1.309 5.374,-0.031 3.977,-0.931 2.573,-1.834 0.981,-2 -0.642,-1.992 c -1.17,0.004 -1.29,-0.173 -0.868,-1.281 0.473,-1.241 1.577,-1.735 3.156,-1.343 0.536,0.133 1.042,0.393 1.549,0.624 0.471,0.214 0.938,0.405 1.242,-0.199 0.285,-0.568 0.405,-1.25 -0.197,-1.616 -1.979,-1.207 -4.118,-1.574 -6.303,-0.651 -2.036,0.858 -2.399,2.681 -2.382,4.513" /></g><g
           transform="translate(190.2349,22.3838)"
           id="g118"><path
             id="path120"
             style="fill:#ede2d7;fill-opacity:1;fill-rule:evenodd;stroke:none"
             d="m 0,0 c -1.042,0.297 -1.408,-0.262 -1.55,-1.435 -0.304,-2.513 -0.779,-5.007 -1.18,-7.51 -0.065,-0.409 -0.063,-0.894 -0.604,-0.932 -0.655,-0.047 -1.356,-0.235 -1.961,0.133 -0.339,0.206 -0.125,0.613 -0.075,0.934 0.411,2.652 0.809,5.304 1.243,7.953 0.092,0.559 0.137,0.951 -0.627,0.866 -0.356,-0.039 -0.845,-0.089 -0.793,0.482 0.046,0.505 -0.14,1.24 0.71,1.288 1.031,0.057 1.277,0.626 1.393,1.573 0.454,3.739 3.293,5.527 6.828,4.405 C 4.227,7.489 4.649,6.995 4.421,6.092 4.235,5.361 3.854,4.969 3.043,5.34 2.706,5.493 2.354,5.63 1.994,5.715 1.158,5.914 0.429,5.672 -0.124,5.028 -0.796,4.244 -0.815,3.24 -0.909,2.285 -0.936,2.01 -0.585,2.047 -0.372,2.043 0.076,2.033 0.528,2.078 0.971,2.027 1.441,1.975 2.206,2.357 2.14,1.348 2.087,0.533 1.934,-0.167 0.852,-0.005 0.633,0.028 0.404,0 0,0" /></g><g
           transform="translate(256.5601,32.2012)"
           id="g122"><path
             id="path124"
             style="fill:#ede2d7;fill-opacity:1;fill-rule:evenodd;stroke:none"
             d="m 0,0 c -2.418,-0.012 -2.421,-0.012 -2.05,2.344 0.441,2.794 0.9,5.585 1.32,8.382 0.135,0.907 0.526,1.444 1.509,1.42 0.783,-0.021 1.566,-0.004 2.349,-0.01 0.737,-0.007 1.113,-0.331 0.99,-1.117 C 3.604,7.744 3.097,4.469 2.589,1.194 2.468,0.415 2.031,0.001 1.23,0 0.82,-0.001 0.41,0 0,0" /></g><g
           transform="translate(208.5737,22.9971)"
           id="g126"><path
             id="path128"
             style="fill:#ede2d7;fill-opacity:1;fill-rule:evenodd;stroke:none"
             d="M 0,0 C 1.104,0.814 2.051,1.575 3.318,1.603 3.959,1.616 4.797,1.828 4.771,0.752 4.744,-0.288 4.404,-1.078 3.341,-0.918 2.367,-0.771 1.517,-1.141 0.74,-1.726 0.171,-2.154 -0.166,-2.682 -0.271,-3.394 -0.56,-5.351 -0.882,-7.303 -1.18,-9.258 c -0.168,-1.108 -1.535,-1.78 -2.492,-1.213 -0.323,0.192 -0.282,0.504 -0.237,0.798 0.539,3.501 1.083,7.002 1.63,10.501 0.09,0.572 0.536,0.675 1.004,0.684 0.489,0.01 1.008,0.015 1.16,-0.615 C -0.056,0.649 -0.048,0.389 0,0" /></g><g
           transform="translate(259.0327,49.959)"
           id="g130"><path
             id="path132"
             style="fill:#ede2d7;fill-opacity:1;fill-rule:evenodd;stroke:none"
             d="M 0,0 C 0.261,0 0.521,0.012 0.781,-0.002 1.746,-0.056 2.548,-0.307 2.651,-1.477 2.782,-2.959 2.34,-3.769 1.195,-4.124 0.687,-4.282 0.172,-4.303 -0.351,-4.296 c -1.866,0.024 -2.476,0.5 -2.476,1.94 0,1.702 0.643,2.316 2.492,2.378 0.111,0.004 0.224,0 0.335,0 z" /></g></g></g></g></svg>