<?xml version="1.0" standalone="no"?>
<!DOCTYPE svg PUBLIC "-//W3C//DTD SVG 20010904//EN"
 "http://www.w3.org/TR/2001/REC-SVG-20010904/DTD/svg10.dtd">
<svg version="1.0" xmlns="http://www.w3.org/2000/svg"
 width="1280.000000pt" height="1067.000000pt" viewBox="0 0 1280.000000 1067.000000"
 preserveAspectRatio="xMidYMid meet">

<g transform="translate(0.000000,1067.000000) scale(0.100000,-0.100000)"
fill="#000000" stroke="none">
<path d="M0 10599 l0 -71 33 48 c19 29 49 57 76 71 l44 23 -76 0 -77 0 0 -71z"/>
<path d="M12691 10647 c27 -14 57 -42 77 -71 l32 -48 0 71 0 71 -77 0 -76 0
44 -23z"/>
<path d="M0 73 l0 -73 73 0 c72 1 72 1 42 17 -43 22 -74 53 -96 93 l-18 35 -1
-72z"/>
<path d="M12780 111 c-13 -33 -52 -72 -95 -94 -30 -16 -30 -16 43 -17 l72 0 0
70 c0 39 -2 70 -4 70 -2 0 -9 -13 -16 -29z"/>
</g>
</svg>
